<?xml version="1.0" encoding="UTF-8" standalone="no"?>
<!DOCTYPE svg PUBLIC "-//W3C//DTD SVG 1.1//EN"
 "http://www.w3.org/Graphics/SVG/1.1/DTD/svg11.dtd">
<!-- Generated by graphviz version 2.43.0 (0)
 -->
<!-- Title: %3 Pages: 1 -->
<svg width="555pt" height="240pt"
 viewBox="0.00 0.00 555.00 239.74" xmlns="http://www.w3.org/2000/svg" xmlns:xlink="http://www.w3.org/1999/xlink">
<g id="graph0" class="graph" transform="scale(1 1) rotate(0) translate(36 203.74)">
<title>%3</title>
<polygon fill="dimgray" stroke="transparent" points="-36,36 -36,-203.74 519,-203.74 519,36 -36,36"/>
<text text-anchor="middle" x="241.5" y="-152.54" font-family="Helvetica,sans-Serif" font-size="14.00">Sweep&#39;s Plan &amp; Progress</text>
<!-- start -->
<g id="node1" class="node">
<title>start</title>
</g>
<!-- e44c2953&#45;4136&#45;49e9&#45;b342&#45;7f7af0d69136 -->
<g id="node3" class="node">
<title>e44c2953&#45;4136&#45;49e9&#45;b342&#45;7f7af0d69136</title>
<ellipse fill="yellow" stroke="black" cx="238.5" cy="-101.87" rx="185.94" ry="26.74"/>
<text text-anchor="middle" x="238.5" y="-105.67" font-family="Helvetica,sans-Serif" font-size="14.00">⋯ Create</text>
<text text-anchor="middle" x="238.5" y="-90.67" font-family="Helvetica,sans-Serif" font-size="14.00">touch_typing_practice/test_main.py</text>
</g>
<!-- start&#45;&gt;e44c2953&#45;4136&#45;49e9&#45;b342&#45;7f7af0d69136 -->
<g id="edge2" class="edge">
<title>start&#45;&gt;e44c2953&#45;4136&#45;49e9&#45;b342&#45;7f7af0d69136</title>
<path fill="none" stroke="black" d="M1.18,-101.87C4.58,-101.87 20.37,-101.87 42.32,-101.87"/>
<polygon fill="black" stroke="black" points="42.45,-105.37 52.45,-101.87 42.45,-98.37 42.45,-105.37"/>
<text text-anchor="middle" x="26.77" y="-108.67" font-family="Helvetica,sans-Serif" font-size="14.00">Start</text>
</g>
<!-- end -->
<g id="node2" class="node">
<title>end</title>
</g>
<!-- e44c2953&#45;4136&#45;49e9&#45;b342&#45;7f7af0d69136&#45;&gt;end -->
<g id="edge3" class="edge">
<title>e44c2953&#45;4136&#45;49e9&#45;b342&#45;7f7af0d69136&#45;&gt;end</title>
<path fill="none" stroke="black" d="M424.68,-101.87C444.77,-101.87 461.62,-101.87 471.86,-101.87"/>
<polygon fill="black" stroke="black" points="471.87,-105.37 481.87,-101.87 471.87,-98.37 471.87,-105.37"/>
<text text-anchor="middle" x="453.23" y="-108.67" font-family="Helvetica,sans-Serif" font-size="14.00">Finish</text>
</g>
<!-- 57f391d9&#45;de2e&#45;4c91&#45;a6a3&#45;f6e88636c092 -->
<g id="node4" class="node">
<title>57f391d9&#45;de2e&#45;4c91&#45;a6a3&#45;f6e88636c092</title>
<polygon fill="white" stroke="black" points="370,-38 107,-38 107,0 370,0 370,-38"/>
<text text-anchor="middle" x="238.5" y="-22.8" font-family="Helvetica,sans-Serif" font-size="14.00">▶ Check</text>
<text text-anchor="middle" x="238.5" y="-7.8" font-family="Helvetica,sans-Serif" font-size="14.00">touch_typing_practice/test_main.py</text>
</g>
<!-- e44c2953&#45;4136&#45;49e9&#45;b342&#45;7f7af0d69136&#45;&gt;57f391d9&#45;de2e&#45;4c91&#45;a6a3&#45;f6e88636c092 -->
<g id="edge1" class="edge">
<title>e44c2953&#45;4136&#45;49e9&#45;b342&#45;7f7af0d69136&#45;&gt;57f391d9&#45;de2e&#45;4c91&#45;a6a3&#45;f6e88636c092</title>
<path fill="none" stroke="black" stroke-dasharray="5,2" d="M238.5,-74.84C238.5,-66.3 238.5,-56.78 238.5,-48.1"/>
<polygon fill="black" stroke="black" points="242,-48.05 238.5,-38.05 235,-48.05 242,-48.05"/>
</g>
</g>
</svg>
