<?xml version="1.0" encoding="UTF-8" standalone="no"?>
<!DOCTYPE svg PUBLIC "-//W3C//DTD SVG 1.1//EN"
 "http://www.w3.org/Graphics/SVG/1.1/DTD/svg11.dtd">
<!-- Generated by graphviz version 2.43.0 (0)
 -->
<!-- Title: %3 Pages: 1 -->
<svg width="1179pt" height="240pt"
 viewBox="0.00 0.00 1179.00 239.74" xmlns="http://www.w3.org/2000/svg" xmlns:xlink="http://www.w3.org/1999/xlink">
<g id="graph0" class="graph" transform="scale(1 1) rotate(0) translate(36 203.74)">
<title>%3</title>
<polygon fill="dimgray" stroke="transparent" points="-36,36 -36,-203.74 1143,-203.74 1143,36 -36,36"/>
<text text-anchor="middle" x="553.5" y="-152.54" font-family="Helvetica,sans-Serif" font-size="14.00">Sweep&#39;s Plan &amp; Progress</text>
<!-- start -->
<g id="node1" class="node">
<title>start</title>
</g>
<!-- cbd08a09&#45;8dc0&#45;4507&#45;b270&#45;96cfd42d0fb1 -->
<g id="node3" class="node">
<title>cbd08a09&#45;8dc0&#45;4507&#45;b270&#45;96cfd42d0fb1</title>
<ellipse fill="#0ee832" stroke="black" cx="232.5" cy="-101.87" rx="179.71" ry="26.74"/>
<text text-anchor="middle" x="232.5" y="-105.67" font-family="Helvetica,sans-Serif" font-size="14.00">✓ Create</text>
<text text-anchor="middle" x="232.5" y="-90.67" font-family="Helvetica,sans-Serif" font-size="14.00">touch_typing_practice/frontend.py</text>
</g>
<!-- start&#45;&gt;cbd08a09&#45;8dc0&#45;4507&#45;b270&#45;96cfd42d0fb1 -->
<g id="edge6" class="edge">
<title>start&#45;&gt;cbd08a09&#45;8dc0&#45;4507&#45;b270&#45;96cfd42d0fb1</title>
<path fill="none" stroke="black" d="M1.17,-101.87C4.55,-101.87 20.52,-101.87 42.62,-101.87"/>
<polygon fill="black" stroke="black" points="42.82,-105.37 52.82,-101.87 42.82,-98.37 42.82,-105.37"/>
<text text-anchor="middle" x="26.95" y="-108.67" font-family="Helvetica,sans-Serif" font-size="14.00">Start</text>
</g>
<!-- end -->
<g id="node2" class="node">
<title>end</title>
</g>
<!-- 3d7fc0b5&#45;0a68&#45;424f&#45;b90d&#45;31fada5b21a0 -->
<g id="node4" class="node">
<title>3d7fc0b5&#45;0a68&#45;424f&#45;b90d&#45;31fada5b21a0</title>
<ellipse fill="#0ee832" stroke="black" cx="610.5" cy="-101.87" rx="162.77" ry="26.74"/>
<text text-anchor="middle" x="610.5" y="-105.67" font-family="Helvetica,sans-Serif" font-size="14.00">✓ Modify</text>
<text text-anchor="middle" x="610.5" y="-90.67" font-family="Helvetica,sans-Serif" font-size="14.00">touch_typing_practice/main.py</text>
</g>
<!-- cbd08a09&#45;8dc0&#45;4507&#45;b270&#45;96cfd42d0fb1&#45;&gt;3d7fc0b5&#45;0a68&#45;424f&#45;b90d&#45;31fada5b21a0 -->
<g id="edge2" class="edge">
<title>cbd08a09&#45;8dc0&#45;4507&#45;b270&#45;96cfd42d0fb1&#45;&gt;3d7fc0b5&#45;0a68&#45;424f&#45;b90d&#45;31fada5b21a0</title>
<path fill="none" stroke="black" d="M412.27,-101.87C420.62,-101.87 428.97,-101.87 437.32,-101.87"/>
<polygon fill="black" stroke="black" points="437.5,-105.37 447.5,-101.87 437.5,-98.37 437.5,-105.37"/>
</g>
<!-- 669541ab&#45;e3db&#45;4a74&#45;8e10&#45;375f24ad9b58 -->
<g id="node6" class="node">
<title>669541ab&#45;e3db&#45;4a74&#45;8e10&#45;375f24ad9b58</title>
<polygon fill="#0ee832" stroke="black" points="359.5,-38 105.5,-38 105.5,0 359.5,0 359.5,-38"/>
<text text-anchor="middle" x="232.5" y="-22.8" font-family="Helvetica,sans-Serif" font-size="14.00">✓ Check</text>
<text text-anchor="middle" x="232.5" y="-7.8" font-family="Helvetica,sans-Serif" font-size="14.00">touch_typing_practice/frontend.py</text>
</g>
<!-- cbd08a09&#45;8dc0&#45;4507&#45;b270&#45;96cfd42d0fb1&#45;&gt;669541ab&#45;e3db&#45;4a74&#45;8e10&#45;375f24ad9b58 -->
<g id="edge1" class="edge">
<title>cbd08a09&#45;8dc0&#45;4507&#45;b270&#45;96cfd42d0fb1&#45;&gt;669541ab&#45;e3db&#45;4a74&#45;8e10&#45;375f24ad9b58</title>
<path fill="none" stroke="black" stroke-dasharray="5,2" d="M232.5,-74.84C232.5,-66.3 232.5,-56.78 232.5,-48.1"/>
<polygon fill="black" stroke="black" points="236,-48.05 232.5,-38.05 229,-48.05 236,-48.05"/>
</g>
<!-- e2009d66&#45;14d9&#45;43f2&#45;b50c&#45;06f5f74c2584 -->
<g id="node5" class="node">
<title>e2009d66&#45;14d9&#45;43f2&#45;b50c&#45;06f5f74c2584</title>
<ellipse fill="#0ee832" stroke="black" cx="928.5" cy="-101.87" rx="119.5" ry="26.74"/>
<text text-anchor="middle" x="928.5" y="-105.67" font-family="Helvetica,sans-Serif" font-size="14.00">✓ Create</text>
<text text-anchor="middle" x="928.5" y="-90.67" font-family="Helvetica,sans-Serif" font-size="14.00">tests/test_frontend.py</text>
</g>
<!-- 3d7fc0b5&#45;0a68&#45;424f&#45;b90d&#45;31fada5b21a0&#45;&gt;e2009d66&#45;14d9&#45;43f2&#45;b50c&#45;06f5f74c2584 -->
<g id="edge4" class="edge">
<title>3d7fc0b5&#45;0a68&#45;424f&#45;b90d&#45;31fada5b21a0&#45;&gt;e2009d66&#45;14d9&#45;43f2&#45;b50c&#45;06f5f74c2584</title>
<path fill="none" stroke="black" d="M773.23,-101.87C781.64,-101.87 790.04,-101.87 798.45,-101.87"/>
<polygon fill="black" stroke="black" points="798.71,-105.37 808.71,-101.87 798.71,-98.37 798.71,-105.37"/>
</g>
<!-- 70be3299&#45;a373&#45;4bc1&#45;a18c&#45;4199eac3a375 -->
<g id="node7" class="node">
<title>70be3299&#45;a373&#45;4bc1&#45;a18c&#45;4199eac3a375</title>
<polygon fill="#0ee832" stroke="black" points="725.5,-38 495.5,-38 495.5,0 725.5,0 725.5,-38"/>
<text text-anchor="middle" x="610.5" y="-22.8" font-family="Helvetica,sans-Serif" font-size="14.00">✓ Check</text>
<text text-anchor="middle" x="610.5" y="-7.8" font-family="Helvetica,sans-Serif" font-size="14.00">touch_typing_practice/main.py</text>
</g>
<!-- 3d7fc0b5&#45;0a68&#45;424f&#45;b90d&#45;31fada5b21a0&#45;&gt;70be3299&#45;a373&#45;4bc1&#45;a18c&#45;4199eac3a375 -->
<g id="edge3" class="edge">
<title>3d7fc0b5&#45;0a68&#45;424f&#45;b90d&#45;31fada5b21a0&#45;&gt;70be3299&#45;a373&#45;4bc1&#45;a18c&#45;4199eac3a375</title>
<path fill="none" stroke="black" stroke-dasharray="5,2" d="M610.5,-74.84C610.5,-66.3 610.5,-56.78 610.5,-48.1"/>
<polygon fill="black" stroke="black" points="614,-48.05 610.5,-38.05 607,-48.05 614,-48.05"/>
</g>
<!-- e2009d66&#45;14d9&#45;43f2&#45;b50c&#45;06f5f74c2584&#45;&gt;end -->
<g id="edge7" class="edge">
<title>e2009d66&#45;14d9&#45;43f2&#45;b50c&#45;06f5f74c2584&#45;&gt;end</title>
<path fill="none" stroke="black" d="M1048.22,-101.87C1067.82,-101.87 1085.16,-101.87 1095.72,-101.87"/>
<polygon fill="black" stroke="black" points="1095.83,-105.37 1105.83,-101.87 1095.83,-98.37 1095.83,-105.37"/>
<text text-anchor="middle" x="1077" y="-108.67" font-family="Helvetica,sans-Serif" font-size="14.00">Finish</text>
</g>
<!-- d611aa9d&#45;594d&#45;4d25&#45;aae7&#45;1daf315a17e3 -->
<g id="node8" class="node">
<title>d611aa9d&#45;594d&#45;4d25&#45;aae7&#45;1daf315a17e3</title>
<polygon fill="#ee0000" stroke="black" points="1013,-38 844,-38 844,0 1013,0 1013,-38"/>
<text text-anchor="middle" x="928.5" y="-22.8" font-family="Helvetica,sans-Serif" font-size="14.00">✗ Check</text>
<text text-anchor="middle" x="928.5" y="-7.8" font-family="Helvetica,sans-Serif" font-size="14.00">tests/test_frontend.py</text>
</g>
<!-- e2009d66&#45;14d9&#45;43f2&#45;b50c&#45;06f5f74c2584&#45;&gt;d611aa9d&#45;594d&#45;4d25&#45;aae7&#45;1daf315a17e3 -->
<g id="edge5" class="edge">
<title>e2009d66&#45;14d9&#45;43f2&#45;b50c&#45;06f5f74c2584&#45;&gt;d611aa9d&#45;594d&#45;4d25&#45;aae7&#45;1daf315a17e3</title>
<path fill="none" stroke="black" stroke-dasharray="5,2" d="M928.5,-74.84C928.5,-66.3 928.5,-56.78 928.5,-48.1"/>
<polygon fill="black" stroke="black" points="932,-48.05 928.5,-38.05 925,-48.05 932,-48.05"/>
</g>
</g>
</svg>
