<?xml version="1.0" encoding="UTF-8" standalone="no"?>
<!DOCTYPE svg PUBLIC "-//W3C//DTD SVG 1.1//EN"
 "http://www.w3.org/Graphics/SVG/1.1/DTD/svg11.dtd">
<!-- Generated by graphviz version 2.43.0 (0)
 -->
<!-- Title: %3 Pages: 1 -->
<svg width="1975pt" height="593pt"
 viewBox="0.00 0.00 1975.00 593.22" xmlns="http://www.w3.org/2000/svg" xmlns:xlink="http://www.w3.org/1999/xlink">
<g id="graph0" class="graph" transform="scale(1 1) rotate(0) translate(36 557.22)">
<title>%3</title>
<polygon fill="dimgray" stroke="transparent" points="-36,36 -36,-557.22 1939,-557.22 1939,36 -36,36"/>
<text text-anchor="middle" x="951.5" y="-506.02" font-family="Helvetica,sans-Serif" font-size="14.00">Sweep&#39;s Plan &amp; Progress</text>
<!-- start -->
<g id="node1" class="node">
<title>start</title>
</g>
<!-- c19f59b3&#45;5a0a&#45;4413&#45;bcfe&#45;7736547d92e4 -->
<g id="node3" class="node">
<title>c19f59b3&#45;5a0a&#45;4413&#45;bcfe&#45;7736547d92e4</title>
<ellipse fill="#0ee832" stroke="black" cx="232.5" cy="-455.35" rx="179.71" ry="26.74"/>
<text text-anchor="middle" x="232.5" y="-459.15" font-family="Helvetica,sans-Serif" font-size="14.00">✓ Create</text>
<text text-anchor="middle" x="232.5" y="-444.15" font-family="Helvetica,sans-Serif" font-size="14.00">touch_typing_practice/frontend.py</text>
</g>
<!-- start&#45;&gt;c19f59b3&#45;5a0a&#45;4413&#45;bcfe&#45;7736547d92e4 -->
<g id="edge15" class="edge">
<title>start&#45;&gt;c19f59b3&#45;5a0a&#45;4413&#45;bcfe&#45;7736547d92e4</title>
<path fill="none" stroke="black" d="M1.17,-455.35C4.55,-455.35 20.52,-455.35 42.62,-455.35"/>
<polygon fill="black" stroke="black" points="42.82,-458.85 52.82,-455.35 42.82,-451.85 42.82,-458.85"/>
<text text-anchor="middle" x="26.95" y="-462.15" font-family="Helvetica,sans-Serif" font-size="14.00">Start</text>
</g>
<!-- end -->
<g id="node2" class="node">
<title>end</title>
</g>
<!-- 6d029d13&#45;2013&#45;4c1e&#45;9059&#45;e3ba9064fb02 -->
<g id="node4" class="node">
<title>6d029d13&#45;2013&#45;4c1e&#45;9059&#45;e3ba9064fb02</title>
<ellipse fill="#0ee832" stroke="black" cx="922.5" cy="-455.35" rx="162.77" ry="26.74"/>
<text text-anchor="middle" x="922.5" y="-459.15" font-family="Helvetica,sans-Serif" font-size="14.00">✓ Modify</text>
<text text-anchor="middle" x="922.5" y="-444.15" font-family="Helvetica,sans-Serif" font-size="14.00">touch_typing_practice/main.py</text>
</g>
<!-- c19f59b3&#45;5a0a&#45;4413&#45;bcfe&#45;7736547d92e4&#45;&gt;6d029d13&#45;2013&#45;4c1e&#45;9059&#45;e3ba9064fb02 -->
<g id="edge2" class="edge">
<title>c19f59b3&#45;5a0a&#45;4413&#45;bcfe&#45;7736547d92e4&#45;&gt;6d029d13&#45;2013&#45;4c1e&#45;9059&#45;e3ba9064fb02</title>
<path fill="none" stroke="black" d="M412.41,-455.35C524.75,-455.35 637.1,-455.35 749.44,-455.35"/>
<polygon fill="black" stroke="black" points="749.61,-458.85 759.61,-455.35 749.61,-451.85 749.61,-458.85"/>
</g>
<!-- 30bc8cd6&#45;ba71&#45;4f7c&#45;9da3&#45;adb749ccf9ab -->
<g id="node6" class="node">
<title>30bc8cd6&#45;ba71&#45;4f7c&#45;9da3&#45;adb749ccf9ab</title>
<polygon fill="#0ee832" stroke="black" points="419.5,-391.48 11.5,-391.48 11.5,-355.48 419.5,-355.48 419.5,-391.48"/>
<text text-anchor="middle" x="215.5" y="-369.78" font-family="Helvetica,sans-Serif" font-size="14.00">✓ Ran sandbox for `touch_typing_practice/frontend.py`.</text>
</g>
<!-- c19f59b3&#45;5a0a&#45;4413&#45;bcfe&#45;7736547d92e4&#45;&gt;30bc8cd6&#45;ba71&#45;4f7c&#45;9da3&#45;adb749ccf9ab -->
<g id="edge1" class="edge">
<title>c19f59b3&#45;5a0a&#45;4413&#45;bcfe&#45;7736547d92e4&#45;&gt;30bc8cd6&#45;ba71&#45;4f7c&#45;9da3&#45;adb749ccf9ab</title>
<path fill="none" stroke="black" stroke-dasharray="5,2" d="M226.93,-428.2C225.12,-419.66 223.09,-410.16 221.26,-401.56"/>
<polygon fill="black" stroke="black" points="224.65,-400.68 219.15,-391.63 217.81,-402.14 224.65,-400.68"/>
</g>
<!-- 45ba3331&#45;46fc&#45;4980&#45;9d31&#45;6815cc54a420 -->
<g id="node5" class="node">
<title>45ba3331&#45;46fc&#45;4980&#45;9d31&#45;6815cc54a420</title>
<ellipse fill="#0ee832" stroke="black" cx="1400.5" cy="-455.35" rx="119.5" ry="26.74"/>
<text text-anchor="middle" x="1400.5" y="-459.15" font-family="Helvetica,sans-Serif" font-size="14.00">✓ Create</text>
<text text-anchor="middle" x="1400.5" y="-444.15" font-family="Helvetica,sans-Serif" font-size="14.00">tests/test_frontend.py</text>
</g>
<!-- 6d029d13&#45;2013&#45;4c1e&#45;9059&#45;e3ba9064fb02&#45;&gt;45ba3331&#45;46fc&#45;4980&#45;9d31&#45;6815cc54a420 -->
<g id="edge10" class="edge">
<title>6d029d13&#45;2013&#45;4c1e&#45;9059&#45;e3ba9064fb02&#45;&gt;45ba3331&#45;46fc&#45;4980&#45;9d31&#45;6815cc54a420</title>
<path fill="none" stroke="black" d="M1085.41,-455.35C1147.11,-455.35 1208.8,-455.35 1270.5,-455.35"/>
<polygon fill="black" stroke="black" points="1270.8,-458.85 1280.8,-455.35 1270.8,-451.85 1270.8,-458.85"/>
</g>
<!-- 4e5abde4&#45;3ed0&#45;4a66&#45;bc89&#45;ab03fb4981ee -->
<g id="node7" class="node">
<title>4e5abde4&#45;3ed0&#45;4a66&#45;bc89&#45;ab03fb4981ee</title>
<polygon fill="#ee0000" stroke="black" points="820,-391.48 437,-391.48 437,-355.48 820,-355.48 820,-391.48"/>
<text text-anchor="middle" x="628.5" y="-369.78" font-family="Helvetica,sans-Serif" font-size="14.00">✗ Ran sandbox for `touch_typing_practice/main.py`.</text>
</g>
<!-- 6d029d13&#45;2013&#45;4c1e&#45;9059&#45;e3ba9064fb02&#45;&gt;4e5abde4&#45;3ed0&#45;4a66&#45;bc89&#45;ab03fb4981ee -->
<g id="edge3" class="edge">
<title>6d029d13&#45;2013&#45;4c1e&#45;9059&#45;e3ba9064fb02&#45;&gt;4e5abde4&#45;3ed0&#45;4a66&#45;bc89&#45;ab03fb4981ee</title>
<path fill="none" stroke="black" stroke-dasharray="5,2" d="M840.6,-432.1C796.78,-420.2 743.29,-405.67 700.99,-394.17"/>
<polygon fill="black" stroke="black" points="701.88,-390.79 691.32,-391.55 700.05,-397.54 701.88,-390.79"/>
</g>
<!-- 8a366206&#45;8c2f&#45;4e40&#45;8e7e&#45;71ab1d845145 -->
<g id="node8" class="node">
<title>8a366206&#45;8c2f&#45;4e40&#45;8e7e&#45;71ab1d845145</title>
<polygon fill="#0ee832" stroke="black" points="1221,-391.48 838,-391.48 838,-355.48 1221,-355.48 1221,-391.48"/>
<text text-anchor="middle" x="1029.5" y="-369.78" font-family="Helvetica,sans-Serif" font-size="14.00">✓ Ran sandbox for `touch_typing_practice/main.py`.</text>
</g>
<!-- 6d029d13&#45;2013&#45;4c1e&#45;9059&#45;e3ba9064fb02&#45;&gt;8a366206&#45;8c2f&#45;4e40&#45;8e7e&#45;71ab1d845145 -->
<g id="edge9" class="edge">
<title>6d029d13&#45;2013&#45;4c1e&#45;9059&#45;e3ba9064fb02&#45;&gt;8a366206&#45;8c2f&#45;4e40&#45;8e7e&#45;71ab1d845145</title>
<path fill="none" stroke="black" stroke-dasharray="5,2" d="M956.65,-428.86C970,-418.9 985.2,-407.55 998.25,-397.81"/>
<polygon fill="black" stroke="black" points="1000.55,-400.45 1006.47,-391.67 996.37,-394.84 1000.55,-400.45"/>
</g>
<!-- 45ba3331&#45;46fc&#45;4980&#45;9d31&#45;6815cc54a420&#45;&gt;end -->
<g id="edge16" class="edge">
<title>45ba3331&#45;46fc&#45;4980&#45;9d31&#45;6815cc54a420&#45;&gt;end</title>
<path fill="none" stroke="black" d="M1520.22,-455.35C1539.82,-455.35 1557.16,-455.35 1567.72,-455.35"/>
<polygon fill="black" stroke="black" points="1567.83,-458.85 1577.83,-455.35 1567.83,-451.85 1567.83,-458.85"/>
<text text-anchor="middle" x="1549" y="-462.15" font-family="Helvetica,sans-Serif" font-size="14.00">Finish</text>
</g>
<!-- 1f540b12&#45;9d27&#45;425c&#45;9951&#45;ce80057612e2 -->
<g id="node9" class="node">
<title>1f540b12&#45;9d27&#45;425c&#45;9951&#45;ce80057612e2</title>
<polygon fill="#ee0000" stroke="black" points="1562,-391.48 1239,-391.48 1239,-355.48 1562,-355.48 1562,-391.48"/>
<text text-anchor="middle" x="1400.5" y="-369.78" font-family="Helvetica,sans-Serif" font-size="14.00">✗ Ran sandbox for `tests/test_frontend.py`.</text>
</g>
<!-- 45ba3331&#45;46fc&#45;4980&#45;9d31&#45;6815cc54a420&#45;&gt;1f540b12&#45;9d27&#45;425c&#45;9951&#45;ce80057612e2 -->
<g id="edge11" class="edge">
<title>45ba3331&#45;46fc&#45;4980&#45;9d31&#45;6815cc54a420&#45;&gt;1f540b12&#45;9d27&#45;425c&#45;9951&#45;ce80057612e2</title>
<path fill="none" stroke="black" stroke-dasharray="5,2" d="M1400.5,-428.2C1400.5,-419.75 1400.5,-410.37 1400.5,-401.84"/>
<polygon fill="black" stroke="black" points="1404,-401.63 1400.5,-391.63 1397,-401.63 1404,-401.63"/>
</g>
<!-- ff28fda4&#45;9a17&#45;46ed&#45;be79&#45;8a0e50dee323 -->
<g id="node10" class="node">
<title>ff28fda4&#45;9a17&#45;46ed&#45;be79&#45;8a0e50dee323</title>
<polygon fill="#ee0000" stroke="black" points="1903,-391.48 1580,-391.48 1580,-355.48 1903,-355.48 1903,-391.48"/>
<text text-anchor="middle" x="1741.5" y="-369.78" font-family="Helvetica,sans-Serif" font-size="14.00">✗ Ran sandbox for `tests/test_frontend.py`.</text>
</g>
<!-- 45ba3331&#45;46fc&#45;4980&#45;9d31&#45;6815cc54a420&#45;&gt;ff28fda4&#45;9a17&#45;46ed&#45;be79&#45;8a0e50dee323 -->
<g id="edge14" class="edge">
<title>45ba3331&#45;46fc&#45;4980&#45;9d31&#45;6815cc54a420&#45;&gt;ff28fda4&#45;9a17&#45;46ed&#45;be79&#45;8a0e50dee323</title>
<path fill="none" stroke="black" stroke-dasharray="5,2" d="M1481.31,-435.42C1534.9,-422.87 1605,-406.45 1658.94,-393.82"/>
<polygon fill="black" stroke="black" points="1659.88,-397.19 1668.81,-391.5 1658.28,-390.38 1659.88,-397.19"/>
</g>
<!-- c3a1a438&#45;4a2d&#45;479d&#45;9a20&#45;c6840c308ec8 -->
<g id="node11" class="node">
<title>c3a1a438&#45;4a2d&#45;479d&#45;9a20&#45;c6840c308ec8</title>
<ellipse fill="#0ee832" stroke="black" cx="628.5" cy="-277.61" rx="162.77" ry="26.74"/>
<text text-anchor="middle" x="628.5" y="-281.41" font-family="Helvetica,sans-Serif" font-size="14.00">✓ Modify</text>
<text text-anchor="middle" x="628.5" y="-266.41" font-family="Helvetica,sans-Serif" font-size="14.00">touch_typing_practice/main.py</text>
</g>
<!-- 4e5abde4&#45;3ed0&#45;4a66&#45;bc89&#45;ab03fb4981ee&#45;&gt;c3a1a438&#45;4a2d&#45;479d&#45;9a20&#45;c6840c308ec8 -->
<g id="edge4" class="edge">
<title>4e5abde4&#45;3ed0&#45;4a66&#45;bc89&#45;ab03fb4981ee&#45;&gt;c3a1a438&#45;4a2d&#45;479d&#45;9a20&#45;c6840c308ec8</title>
<path fill="none" stroke="black" d="M628.5,-355.26C628.5,-343.96 628.5,-328.75 628.5,-314.86"/>
<polygon fill="black" stroke="black" points="632,-314.58 628.5,-304.58 625,-314.58 632,-314.58"/>
<text text-anchor="middle" x="726" y="-326.28" font-family="Helvetica,sans-Serif" font-size="14.00">Additional changes required</text>
</g>
<!-- 4b612ce2&#45;ad26&#45;4445&#45;a574&#45;df81cddd6e15 -->
<g id="node12" class="node">
<title>4b612ce2&#45;ad26&#45;4445&#45;a574&#45;df81cddd6e15</title>
<ellipse fill="#ee0000" stroke="black" cx="1400.5" cy="-277.61" rx="119.5" ry="26.74"/>
<text text-anchor="middle" x="1400.5" y="-281.41" font-family="Helvetica,sans-Serif" font-size="14.00">✗ Modify</text>
<text text-anchor="middle" x="1400.5" y="-266.41" font-family="Helvetica,sans-Serif" font-size="14.00">tests/test_frontend.py</text>
</g>
<!-- 1f540b12&#45;9d27&#45;425c&#45;9951&#45;ce80057612e2&#45;&gt;4b612ce2&#45;ad26&#45;4445&#45;a574&#45;df81cddd6e15 -->
<g id="edge12" class="edge">
<title>1f540b12&#45;9d27&#45;425c&#45;9951&#45;ce80057612e2&#45;&gt;4b612ce2&#45;ad26&#45;4445&#45;a574&#45;df81cddd6e15</title>
<path fill="none" stroke="black" d="M1400.5,-355.26C1400.5,-343.96 1400.5,-328.75 1400.5,-314.86"/>
<polygon fill="black" stroke="black" points="1404,-314.58 1400.5,-304.58 1397,-314.58 1404,-314.58"/>
<text text-anchor="middle" x="1498" y="-326.28" font-family="Helvetica,sans-Serif" font-size="14.00">Additional changes required</text>
</g>
<!-- 377f3db2&#45;d68e&#45;4ed6&#45;8f79&#45;d9fcc4b3ba03 -->
<g id="node13" class="node">
<title>377f3db2&#45;d68e&#45;4ed6&#45;8f79&#45;d9fcc4b3ba03</title>
<polygon fill="#ee0000" stroke="black" points="632,-213.74 249,-213.74 249,-177.74 632,-177.74 632,-213.74"/>
<text text-anchor="middle" x="440.5" y="-192.04" font-family="Helvetica,sans-Serif" font-size="14.00">✗ Ran sandbox for `touch_typing_practice/main.py`.</text>
</g>
<!-- c3a1a438&#45;4a2d&#45;479d&#45;9a20&#45;c6840c308ec8&#45;&gt;377f3db2&#45;d68e&#45;4ed6&#45;8f79&#45;d9fcc4b3ba03 -->
<g id="edge5" class="edge">
<title>c3a1a438&#45;4a2d&#45;479d&#45;9a20&#45;c6840c308ec8&#45;&gt;377f3db2&#45;d68e&#45;4ed6&#45;8f79&#45;d9fcc4b3ba03</title>
<path fill="none" stroke="black" stroke-dasharray="5,2" d="M571.58,-252.43C545.52,-241.36 514.92,-228.36 489.85,-217.7"/>
<polygon fill="black" stroke="black" points="491.1,-214.43 480.53,-213.75 488.36,-220.88 491.1,-214.43"/>
</g>
<!-- 04d27b5b&#45;fa11&#45;4240&#45;b9bd&#45;e1cac744c44a -->
<g id="node14" class="node">
<title>04d27b5b&#45;fa11&#45;4240&#45;b9bd&#45;e1cac744c44a</title>
<polygon fill="#0ee832" stroke="black" points="1033,-213.74 650,-213.74 650,-177.74 1033,-177.74 1033,-213.74"/>
<text text-anchor="middle" x="841.5" y="-192.04" font-family="Helvetica,sans-Serif" font-size="14.00">✓ Ran sandbox for `touch_typing_practice/main.py`.</text>
</g>
<!-- c3a1a438&#45;4a2d&#45;479d&#45;9a20&#45;c6840c308ec8&#45;&gt;04d27b5b&#45;fa11&#45;4240&#45;b9bd&#45;e1cac744c44a -->
<g id="edge8" class="edge">
<title>c3a1a438&#45;4a2d&#45;479d&#45;9a20&#45;c6840c308ec8&#45;&gt;04d27b5b&#45;fa11&#45;4240&#45;b9bd&#45;e1cac744c44a</title>
<path fill="none" stroke="black" stroke-dasharray="5,2" d="M692.12,-252.75C722.19,-241.48 757.73,-228.15 786.6,-217.33"/>
<polygon fill="black" stroke="black" points="787.98,-220.55 796.11,-213.76 785.52,-213.99 787.98,-220.55"/>
</g>
<!-- 38b19a5a&#45;422e&#45;4319&#45;a3be&#45;114fea63e7bc -->
<g id="node15" class="node">
<title>38b19a5a&#45;422e&#45;4319&#45;a3be&#45;114fea63e7bc</title>
<polygon fill="#ee0000" stroke="black" points="1562,-213.74 1239,-213.74 1239,-177.74 1562,-177.74 1562,-213.74"/>
<text text-anchor="middle" x="1400.5" y="-192.04" font-family="Helvetica,sans-Serif" font-size="14.00">✗ Ran sandbox for `tests/test_frontend.py`.</text>
</g>
<!-- 4b612ce2&#45;ad26&#45;4445&#45;a574&#45;df81cddd6e15&#45;&gt;38b19a5a&#45;422e&#45;4319&#45;a3be&#45;114fea63e7bc -->
<g id="edge13" class="edge">
<title>4b612ce2&#45;ad26&#45;4445&#45;a574&#45;df81cddd6e15&#45;&gt;38b19a5a&#45;422e&#45;4319&#45;a3be&#45;114fea63e7bc</title>
<path fill="none" stroke="black" stroke-dasharray="5,2" d="M1400.5,-250.46C1400.5,-242.01 1400.5,-232.63 1400.5,-224.1"/>
<polygon fill="black" stroke="black" points="1404,-223.89 1400.5,-213.89 1397,-223.89 1404,-223.89"/>
</g>
<!-- ccc10f95&#45;cda3&#45;44ac&#45;8f54&#45;c49ef481a1fa -->
<g id="node16" class="node">
<title>ccc10f95&#45;cda3&#45;44ac&#45;8f54&#45;c49ef481a1fa</title>
<ellipse fill="#0ee832" stroke="black" cx="440.5" cy="-99.87" rx="162.77" ry="26.74"/>
<text text-anchor="middle" x="440.5" y="-103.67" font-family="Helvetica,sans-Serif" font-size="14.00">✓ Modify</text>
<text text-anchor="middle" x="440.5" y="-88.67" font-family="Helvetica,sans-Serif" font-size="14.00">touch_typing_practice/main.py</text>
</g>
<!-- 377f3db2&#45;d68e&#45;4ed6&#45;8f79&#45;d9fcc4b3ba03&#45;&gt;ccc10f95&#45;cda3&#45;44ac&#45;8f54&#45;c49ef481a1fa -->
<g id="edge6" class="edge">
<title>377f3db2&#45;d68e&#45;4ed6&#45;8f79&#45;d9fcc4b3ba03&#45;&gt;ccc10f95&#45;cda3&#45;44ac&#45;8f54&#45;c49ef481a1fa</title>
<path fill="none" stroke="black" d="M440.5,-177.52C440.5,-166.22 440.5,-151.01 440.5,-137.12"/>
<polygon fill="black" stroke="black" points="444,-136.84 440.5,-126.84 437,-136.84 444,-136.84"/>
<text text-anchor="middle" x="538" y="-148.54" font-family="Helvetica,sans-Serif" font-size="14.00">Additional changes required</text>
</g>
<!-- 58f84978&#45;1e3c&#45;4692&#45;8a82&#45;b0257075473e -->
<g id="node17" class="node">
<title>58f84978&#45;1e3c&#45;4692&#45;8a82&#45;b0257075473e</title>
<polygon fill="#0ee832" stroke="black" points="632,-36 249,-36 249,0 632,0 632,-36"/>
<text text-anchor="middle" x="440.5" y="-14.3" font-family="Helvetica,sans-Serif" font-size="14.00">✓ Ran sandbox for `touch_typing_practice/main.py`.</text>
</g>
<!-- ccc10f95&#45;cda3&#45;44ac&#45;8f54&#45;c49ef481a1fa&#45;&gt;58f84978&#45;1e3c&#45;4692&#45;8a82&#45;b0257075473e -->
<g id="edge7" class="edge">
<title>ccc10f95&#45;cda3&#45;44ac&#45;8f54&#45;c49ef481a1fa&#45;&gt;58f84978&#45;1e3c&#45;4692&#45;8a82&#45;b0257075473e</title>
<path fill="none" stroke="black" stroke-dasharray="5,2" d="M440.5,-72.72C440.5,-64.27 440.5,-54.89 440.5,-46.36"/>
<polygon fill="black" stroke="black" points="444,-46.15 440.5,-36.15 437,-46.15 444,-46.15"/>
</g>
</g>
</svg>
