<?xml version="1.0" encoding="UTF-8" standalone="no"?>
<!DOCTYPE svg PUBLIC "-//W3C//DTD SVG 1.1//EN"
 "http://www.w3.org/Graphics/SVG/1.1/DTD/svg11.dtd">
<!-- Generated by graphviz version 2.43.0 (0)
 -->
<!-- Title: %3 Pages: 1 -->
<svg width="1179pt" height="240pt"
 viewBox="0.00 0.00 1179.00 239.74" xmlns="http://www.w3.org/2000/svg" xmlns:xlink="http://www.w3.org/1999/xlink">
<g id="graph0" class="graph" transform="scale(1 1) rotate(0) translate(36 203.74)">
<title>%3</title>
<polygon fill="dimgray" stroke="transparent" points="-36,36 -36,-203.74 1143,-203.74 1143,36 -36,36"/>
<text text-anchor="middle" x="553.5" y="-152.54" font-family="Helvetica,sans-Serif" font-size="14.00">Sweep&#39;s Plan &amp; Progress</text>
<!-- start -->
<g id="node1" class="node">
<title>start</title>
</g>
<!-- dc3a7bb4&#45;8f48&#45;40ac&#45;8272&#45;e7d9f0e22924 -->
<g id="node3" class="node">
<title>dc3a7bb4&#45;8f48&#45;40ac&#45;8272&#45;e7d9f0e22924</title>
<ellipse fill="yellow" stroke="black" cx="232.5" cy="-101.87" rx="179.71" ry="26.74"/>
<text text-anchor="middle" x="232.5" y="-105.67" font-family="Helvetica,sans-Serif" font-size="14.00">⋯ Create</text>
<text text-anchor="middle" x="232.5" y="-90.67" font-family="Helvetica,sans-Serif" font-size="14.00">touch_typing_practice/frontend.py</text>
</g>
<!-- start&#45;&gt;dc3a7bb4&#45;8f48&#45;40ac&#45;8272&#45;e7d9f0e22924 -->
<g id="edge6" class="edge">
<title>start&#45;&gt;dc3a7bb4&#45;8f48&#45;40ac&#45;8272&#45;e7d9f0e22924</title>
<path fill="none" stroke="black" d="M1.17,-101.87C4.55,-101.87 20.52,-101.87 42.62,-101.87"/>
<polygon fill="black" stroke="black" points="42.82,-105.37 52.82,-101.87 42.82,-98.37 42.82,-105.37"/>
<text text-anchor="middle" x="26.95" y="-108.67" font-family="Helvetica,sans-Serif" font-size="14.00">Start</text>
</g>
<!-- end -->
<g id="node2" class="node">
<title>end</title>
</g>
<!-- c67534ad&#45;6881&#45;4d06&#45;aa55&#45;f6955c442064 -->
<g id="node4" class="node">
<title>c67534ad&#45;6881&#45;4d06&#45;aa55&#45;f6955c442064</title>
<ellipse fill="white" stroke="black" cx="610.5" cy="-101.87" rx="162.77" ry="26.74"/>
<text text-anchor="middle" x="610.5" y="-105.67" font-family="Helvetica,sans-Serif" font-size="14.00">▶ Modify</text>
<text text-anchor="middle" x="610.5" y="-90.67" font-family="Helvetica,sans-Serif" font-size="14.00">touch_typing_practice/main.py</text>
</g>
<!-- dc3a7bb4&#45;8f48&#45;40ac&#45;8272&#45;e7d9f0e22924&#45;&gt;c67534ad&#45;6881&#45;4d06&#45;aa55&#45;f6955c442064 -->
<g id="edge2" class="edge">
<title>dc3a7bb4&#45;8f48&#45;40ac&#45;8272&#45;e7d9f0e22924&#45;&gt;c67534ad&#45;6881&#45;4d06&#45;aa55&#45;f6955c442064</title>
<path fill="none" stroke="black" d="M412.27,-101.87C420.62,-101.87 428.97,-101.87 437.32,-101.87"/>
<polygon fill="black" stroke="black" points="437.5,-105.37 447.5,-101.87 437.5,-98.37 437.5,-105.37"/>
</g>
<!-- f060121d&#45;29cb&#45;4bcf&#45;92f2&#45;39d69cf2aba8 -->
<g id="node6" class="node">
<title>f060121d&#45;29cb&#45;4bcf&#45;92f2&#45;39d69cf2aba8</title>
<polygon fill="white" stroke="black" points="359.5,-38 105.5,-38 105.5,0 359.5,0 359.5,-38"/>
<text text-anchor="middle" x="232.5" y="-22.8" font-family="Helvetica,sans-Serif" font-size="14.00">▶ Check</text>
<text text-anchor="middle" x="232.5" y="-7.8" font-family="Helvetica,sans-Serif" font-size="14.00">touch_typing_practice/frontend.py</text>
</g>
<!-- dc3a7bb4&#45;8f48&#45;40ac&#45;8272&#45;e7d9f0e22924&#45;&gt;f060121d&#45;29cb&#45;4bcf&#45;92f2&#45;39d69cf2aba8 -->
<g id="edge1" class="edge">
<title>dc3a7bb4&#45;8f48&#45;40ac&#45;8272&#45;e7d9f0e22924&#45;&gt;f060121d&#45;29cb&#45;4bcf&#45;92f2&#45;39d69cf2aba8</title>
<path fill="none" stroke="black" stroke-dasharray="5,2" d="M232.5,-74.84C232.5,-66.3 232.5,-56.78 232.5,-48.1"/>
<polygon fill="black" stroke="black" points="236,-48.05 232.5,-38.05 229,-48.05 236,-48.05"/>
</g>
<!-- 68280930&#45;2491&#45;472b&#45;9f56&#45;a91dbd9050f3 -->
<g id="node5" class="node">
<title>68280930&#45;2491&#45;472b&#45;9f56&#45;a91dbd9050f3</title>
<ellipse fill="white" stroke="black" cx="928.5" cy="-101.87" rx="119.5" ry="26.74"/>
<text text-anchor="middle" x="928.5" y="-105.67" font-family="Helvetica,sans-Serif" font-size="14.00">▶ Create</text>
<text text-anchor="middle" x="928.5" y="-90.67" font-family="Helvetica,sans-Serif" font-size="14.00">tests/test_frontend.py</text>
</g>
<!-- c67534ad&#45;6881&#45;4d06&#45;aa55&#45;f6955c442064&#45;&gt;68280930&#45;2491&#45;472b&#45;9f56&#45;a91dbd9050f3 -->
<g id="edge4" class="edge">
<title>c67534ad&#45;6881&#45;4d06&#45;aa55&#45;f6955c442064&#45;&gt;68280930&#45;2491&#45;472b&#45;9f56&#45;a91dbd9050f3</title>
<path fill="none" stroke="black" d="M773.23,-101.87C781.64,-101.87 790.04,-101.87 798.45,-101.87"/>
<polygon fill="black" stroke="black" points="798.71,-105.37 808.71,-101.87 798.71,-98.37 798.71,-105.37"/>
</g>
<!-- 24d3903a&#45;533f&#45;4fb5&#45;8712&#45;6cbd83b9b25f -->
<g id="node7" class="node">
<title>24d3903a&#45;533f&#45;4fb5&#45;8712&#45;6cbd83b9b25f</title>
<polygon fill="white" stroke="black" points="725.5,-38 495.5,-38 495.5,0 725.5,0 725.5,-38"/>
<text text-anchor="middle" x="610.5" y="-22.8" font-family="Helvetica,sans-Serif" font-size="14.00">▶ Check</text>
<text text-anchor="middle" x="610.5" y="-7.8" font-family="Helvetica,sans-Serif" font-size="14.00">touch_typing_practice/main.py</text>
</g>
<!-- c67534ad&#45;6881&#45;4d06&#45;aa55&#45;f6955c442064&#45;&gt;24d3903a&#45;533f&#45;4fb5&#45;8712&#45;6cbd83b9b25f -->
<g id="edge3" class="edge">
<title>c67534ad&#45;6881&#45;4d06&#45;aa55&#45;f6955c442064&#45;&gt;24d3903a&#45;533f&#45;4fb5&#45;8712&#45;6cbd83b9b25f</title>
<path fill="none" stroke="black" stroke-dasharray="5,2" d="M610.5,-74.84C610.5,-66.3 610.5,-56.78 610.5,-48.1"/>
<polygon fill="black" stroke="black" points="614,-48.05 610.5,-38.05 607,-48.05 614,-48.05"/>
</g>
<!-- 68280930&#45;2491&#45;472b&#45;9f56&#45;a91dbd9050f3&#45;&gt;end -->
<g id="edge7" class="edge">
<title>68280930&#45;2491&#45;472b&#45;9f56&#45;a91dbd9050f3&#45;&gt;end</title>
<path fill="none" stroke="black" d="M1048.22,-101.87C1067.82,-101.87 1085.16,-101.87 1095.72,-101.87"/>
<polygon fill="black" stroke="black" points="1095.83,-105.37 1105.83,-101.87 1095.83,-98.37 1095.83,-105.37"/>
<text text-anchor="middle" x="1077" y="-108.67" font-family="Helvetica,sans-Serif" font-size="14.00">Finish</text>
</g>
<!-- 99af1fdb&#45;2110&#45;418b&#45;962d&#45;8979bad06486 -->
<g id="node8" class="node">
<title>99af1fdb&#45;2110&#45;418b&#45;962d&#45;8979bad06486</title>
<polygon fill="white" stroke="black" points="1013,-38 844,-38 844,0 1013,0 1013,-38"/>
<text text-anchor="middle" x="928.5" y="-22.8" font-family="Helvetica,sans-Serif" font-size="14.00">▶ Check</text>
<text text-anchor="middle" x="928.5" y="-7.8" font-family="Helvetica,sans-Serif" font-size="14.00">tests/test_frontend.py</text>
</g>
<!-- 68280930&#45;2491&#45;472b&#45;9f56&#45;a91dbd9050f3&#45;&gt;99af1fdb&#45;2110&#45;418b&#45;962d&#45;8979bad06486 -->
<g id="edge5" class="edge">
<title>68280930&#45;2491&#45;472b&#45;9f56&#45;a91dbd9050f3&#45;&gt;99af1fdb&#45;2110&#45;418b&#45;962d&#45;8979bad06486</title>
<path fill="none" stroke="black" stroke-dasharray="5,2" d="M928.5,-74.84C928.5,-66.3 928.5,-56.78 928.5,-48.1"/>
<polygon fill="black" stroke="black" points="932,-48.05 928.5,-38.05 925,-48.05 932,-48.05"/>
</g>
</g>
</svg>
