<?xml version="1.0" encoding="UTF-8" standalone="no"?>
<!DOCTYPE svg PUBLIC "-//W3C//DTD SVG 1.1//EN"
 "http://www.w3.org/Graphics/SVG/1.1/DTD/svg11.dtd">
<!-- Generated by graphviz version 2.43.0 (0)
 -->
<!-- Title: %3 Pages: 1 -->
<svg width="387pt" height="238pt"
 viewBox="0.00 0.00 387.00 237.74" xmlns="http://www.w3.org/2000/svg" xmlns:xlink="http://www.w3.org/1999/xlink">
<g id="graph0" class="graph" transform="scale(1 1) rotate(0) translate(36 201.74)">
<title>%3</title>
<polygon fill="dimgray" stroke="transparent" points="-36,36 -36,-201.74 351,-201.74 351,36 -36,36"/>
<text text-anchor="middle" x="157.5" y="-150.54" font-family="Helvetica,sans-Serif" font-size="14.00">Sweep&#39;s Plan &amp; Progress</text>
<!-- start -->
<g id="node1" class="node">
<title>start</title>
</g>
<!-- db2ddeeb&#45;54dd&#45;4450&#45;8e71&#45;ad0575f60f5a -->
<g id="node3" class="node">
<title>db2ddeeb&#45;54dd&#45;4450&#45;8e71&#45;ad0575f60f5a</title>
<ellipse fill="yellow" stroke="black" cx="154.5" cy="-99.87" rx="101.65" ry="26.74"/>
<text text-anchor="middle" x="154.5" y="-103.67" font-family="Helvetica,sans-Serif" font-size="14.00">⋯ Test</text>
<text text-anchor="middle" x="154.5" y="-88.67" font-family="Helvetica,sans-Serif" font-size="14.00">tests/test_main.py</text>
</g>
<!-- start&#45;&gt;db2ddeeb&#45;54dd&#45;4450&#45;8e71&#45;ad0575f60f5a -->
<g id="edge2" class="edge">
<title>start&#45;&gt;db2ddeeb&#45;54dd&#45;4450&#45;8e71&#45;ad0575f60f5a</title>
<path fill="none" stroke="black" d="M1.19,-99.87C4.69,-99.87 21.22,-99.87 42.23,-99.87"/>
<polygon fill="black" stroke="black" points="42.51,-103.37 52.51,-99.87 42.51,-96.37 42.51,-103.37"/>
<text text-anchor="middle" x="26.84" y="-106.67" font-family="Helvetica,sans-Serif" font-size="14.00">Start</text>
</g>
<!-- end -->
<g id="node2" class="node">
<title>end</title>
</g>
<!-- db2ddeeb&#45;54dd&#45;4450&#45;8e71&#45;ad0575f60f5a&#45;&gt;end -->
<g id="edge3" class="edge">
<title>db2ddeeb&#45;54dd&#45;4450&#45;8e71&#45;ad0575f60f5a&#45;&gt;end</title>
<path fill="none" stroke="black" d="M256.74,-99.87C275.83,-99.87 293.09,-99.87 303.67,-99.87"/>
<polygon fill="black" stroke="black" points="303.82,-103.37 313.82,-99.87 303.82,-96.37 303.82,-103.37"/>
<text text-anchor="middle" x="285.16" y="-106.67" font-family="Helvetica,sans-Serif" font-size="14.00">Finish</text>
</g>
<!-- b07ae8cb&#45;e9b1&#45;4919&#45;9b21&#45;0f09d074978f -->
<g id="node4" class="node">
<title>b07ae8cb&#45;e9b1&#45;4919&#45;9b21&#45;0f09d074978f</title>
<polygon fill="white" stroke="black" points="302.5,-36 6.5,-36 6.5,0 302.5,0 302.5,-36"/>
<text text-anchor="middle" x="154.5" y="-14.3" font-family="Helvetica,sans-Serif" font-size="14.00">▶ Ran sandbox for `tests/test_main.py`.</text>
</g>
<!-- db2ddeeb&#45;54dd&#45;4450&#45;8e71&#45;ad0575f60f5a&#45;&gt;b07ae8cb&#45;e9b1&#45;4919&#45;9b21&#45;0f09d074978f -->
<g id="edge1" class="edge">
<title>db2ddeeb&#45;54dd&#45;4450&#45;8e71&#45;ad0575f60f5a&#45;&gt;b07ae8cb&#45;e9b1&#45;4919&#45;9b21&#45;0f09d074978f</title>
<path fill="none" stroke="black" stroke-dasharray="5,2" d="M154.5,-72.72C154.5,-64.27 154.5,-54.89 154.5,-46.36"/>
<polygon fill="black" stroke="black" points="158,-46.15 154.5,-36.15 151,-46.15 158,-46.15"/>
</g>
</g>
</svg>
