<?xml version="1.0" encoding="UTF-8" standalone="no"?>
<!DOCTYPE svg PUBLIC "-//W3C//DTD SVG 1.1//EN"
 "http://www.w3.org/Graphics/SVG/1.1/DTD/svg11.dtd">
<!-- Generated by graphviz version 2.43.0 (0)
 -->
<!-- Title: %3 Pages: 1 -->
<svg width="998pt" height="771pt"
 viewBox="0.00 0.00 998.00 770.96" xmlns="http://www.w3.org/2000/svg" xmlns:xlink="http://www.w3.org/1999/xlink">
<g id="graph0" class="graph" transform="scale(1 1) rotate(0) translate(36 734.96)">
<title>%3</title>
<polygon fill="dimgray" stroke="transparent" points="-36,36 -36,-734.96 962,-734.96 962,36 -36,36"/>
<text text-anchor="middle" x="463" y="-683.76" font-family="Helvetica,sans-Serif" font-size="14.00">Sweep&#39;s Plan &amp; Progress</text>
<!-- start -->
<g id="node1" class="node">
<title>start</title>
</g>
<!-- db2ddeeb&#45;54dd&#45;4450&#45;8e71&#45;ad0575f60f5a -->
<g id="node3" class="node">
<title>db2ddeeb&#45;54dd&#45;4450&#45;8e71&#45;ad0575f60f5a</title>
<ellipse fill="#0ee832" stroke="black" cx="693" cy="-633.09" rx="101.65" ry="26.74"/>
<text text-anchor="middle" x="693" y="-636.89" font-family="Helvetica,sans-Serif" font-size="14.00">✓ Test</text>
<text text-anchor="middle" x="693" y="-621.89" font-family="Helvetica,sans-Serif" font-size="14.00">tests/test_main.py</text>
</g>
<!-- start&#45;&gt;db2ddeeb&#45;54dd&#45;4450&#45;8e71&#45;ad0575f60f5a -->
<g id="edge11" class="edge">
<title>start&#45;&gt;db2ddeeb&#45;54dd&#45;4450&#45;8e71&#45;ad0575f60f5a</title>
<path fill="none" stroke="black" d="M539.69,-633.09C543.19,-633.09 559.72,-633.09 580.73,-633.09"/>
<polygon fill="black" stroke="black" points="581.01,-636.59 591.01,-633.09 581.01,-629.59 581.01,-636.59"/>
<text text-anchor="middle" x="565.34" y="-639.89" font-family="Helvetica,sans-Serif" font-size="14.00">Start</text>
</g>
<!-- end -->
<g id="node2" class="node">
<title>end</title>
</g>
<!-- db2ddeeb&#45;54dd&#45;4450&#45;8e71&#45;ad0575f60f5a&#45;&gt;end -->
<g id="edge12" class="edge">
<title>db2ddeeb&#45;54dd&#45;4450&#45;8e71&#45;ad0575f60f5a&#45;&gt;end</title>
<path fill="none" stroke="black" d="M795.24,-633.09C814.33,-633.09 831.59,-633.09 842.17,-633.09"/>
<polygon fill="black" stroke="black" points="842.32,-636.59 852.32,-633.09 842.32,-629.59 842.32,-636.59"/>
<text text-anchor="middle" x="823.66" y="-639.89" font-family="Helvetica,sans-Serif" font-size="14.00">Finish</text>
</g>
<!-- b07ae8cb&#45;e9b1&#45;4919&#45;9b21&#45;0f09d074978f -->
<g id="node4" class="node">
<title>b07ae8cb&#45;e9b1&#45;4919&#45;9b21&#45;0f09d074978f</title>
<polygon fill="#ee0000" stroke="black" points="612,-569.22 314,-569.22 314,-533.22 612,-533.22 612,-569.22"/>
<text text-anchor="middle" x="463" y="-547.52" font-family="Helvetica,sans-Serif" font-size="14.00">✗ Ran sandbox for `tests/test_main.py`.</text>
</g>
<!-- db2ddeeb&#45;54dd&#45;4450&#45;8e71&#45;ad0575f60f5a&#45;&gt;b07ae8cb&#45;e9b1&#45;4919&#45;9b21&#45;0f09d074978f -->
<g id="edge1" class="edge">
<title>db2ddeeb&#45;54dd&#45;4450&#45;8e71&#45;ad0575f60f5a&#45;&gt;b07ae8cb&#45;e9b1&#45;4919&#45;9b21&#45;0f09d074978f</title>
<path fill="none" stroke="black" stroke-dasharray="5,2" d="M633.17,-611.31C598.89,-599.41 556.03,-584.53 521.9,-572.68"/>
<polygon fill="black" stroke="black" points="522.66,-569.23 512.07,-569.26 520.37,-575.85 522.66,-569.23"/>
</g>
<!-- 852451b1&#45;a41a&#45;47b3&#45;acae&#45;eeb34abd0f65 -->
<g id="node5" class="node">
<title>852451b1&#45;a41a&#45;47b3&#45;acae&#45;eeb34abd0f65</title>
<polygon fill="white" stroke="black" points="926,-569.22 630,-569.22 630,-533.22 926,-533.22 926,-569.22"/>
<text text-anchor="middle" x="778" y="-547.52" font-family="Helvetica,sans-Serif" font-size="14.00">▶ Ran sandbox for `tests/test_main.py`.</text>
</g>
<!-- db2ddeeb&#45;54dd&#45;4450&#45;8e71&#45;ad0575f60f5a&#45;&gt;852451b1&#45;a41a&#45;47b3&#45;acae&#45;eeb34abd0f65 -->
<g id="edge10" class="edge">
<title>db2ddeeb&#45;54dd&#45;4450&#45;8e71&#45;ad0575f60f5a&#45;&gt;852451b1&#45;a41a&#45;47b3&#45;acae&#45;eeb34abd0f65</title>
<path fill="none" stroke="black" stroke-dasharray="5,2" d="M719.89,-606.82C730.28,-597.06 742.11,-585.94 752.38,-576.3"/>
<polygon fill="black" stroke="black" points="754.98,-578.65 759.87,-569.26 750.19,-573.55 754.98,-578.65"/>
</g>
<!-- 16186ee8&#45;c957&#45;431b&#45;91a7&#45;e75dc3294e18 -->
<g id="node6" class="node">
<title>16186ee8&#45;c957&#45;431b&#45;91a7&#45;e75dc3294e18</title>
<ellipse fill="#0ee832" stroke="black" cx="463" cy="-455.35" rx="101.65" ry="26.74"/>
<text text-anchor="middle" x="463" y="-459.15" font-family="Helvetica,sans-Serif" font-size="14.00">✓ Modify</text>
<text text-anchor="middle" x="463" y="-444.15" font-family="Helvetica,sans-Serif" font-size="14.00">tests/test_main.py</text>
</g>
<!-- b07ae8cb&#45;e9b1&#45;4919&#45;9b21&#45;0f09d074978f&#45;&gt;16186ee8&#45;c957&#45;431b&#45;91a7&#45;e75dc3294e18 -->
<g id="edge2" class="edge">
<title>b07ae8cb&#45;e9b1&#45;4919&#45;9b21&#45;0f09d074978f&#45;&gt;16186ee8&#45;c957&#45;431b&#45;91a7&#45;e75dc3294e18</title>
<path fill="none" stroke="black" d="M463,-533C463,-521.7 463,-506.49 463,-492.6"/>
<polygon fill="black" stroke="black" points="466.5,-492.32 463,-482.32 459.5,-492.32 466.5,-492.32"/>
<text text-anchor="middle" x="560.5" y="-504.02" font-family="Helvetica,sans-Serif" font-size="14.00">Additional changes required</text>
</g>
<!-- e9b331f6&#45;9959&#45;4257&#45;adba&#45;e16af967d482 -->
<g id="node7" class="node">
<title>e9b331f6&#45;9959&#45;4257&#45;adba&#45;e16af967d482</title>
<polygon fill="#ee0000" stroke="black" points="455,-391.48 157,-391.48 157,-355.48 455,-355.48 455,-391.48"/>
<text text-anchor="middle" x="306" y="-369.78" font-family="Helvetica,sans-Serif" font-size="14.00">✗ Ran sandbox for `tests/test_main.py`.</text>
</g>
<!-- 16186ee8&#45;c957&#45;431b&#45;91a7&#45;e75dc3294e18&#45;&gt;e9b331f6&#45;9959&#45;4257&#45;adba&#45;e16af967d482 -->
<g id="edge3" class="edge">
<title>16186ee8&#45;c957&#45;431b&#45;91a7&#45;e75dc3294e18&#45;&gt;e9b331f6&#45;9959&#45;4257&#45;adba&#45;e16af967d482</title>
<path fill="none" stroke="black" stroke-dasharray="5,2" d="M417.59,-431.25C395.97,-420.25 370.26,-407.17 348.97,-396.34"/>
<polygon fill="black" stroke="black" points="350.33,-393.11 339.83,-391.69 347.16,-399.35 350.33,-393.11"/>
</g>
<!-- c5806466&#45;79da&#45;4234&#45;87b6&#45;eda4bb5d782e -->
<g id="node8" class="node">
<title>c5806466&#45;79da&#45;4234&#45;87b6&#45;eda4bb5d782e</title>
<polygon fill="white" stroke="black" points="769,-391.48 473,-391.48 473,-355.48 769,-355.48 769,-391.48"/>
<text text-anchor="middle" x="621" y="-369.78" font-family="Helvetica,sans-Serif" font-size="14.00">▶ Ran sandbox for `tests/test_main.py`.</text>
</g>
<!-- 16186ee8&#45;c957&#45;431b&#45;91a7&#45;e75dc3294e18&#45;&gt;c5806466&#45;79da&#45;4234&#45;87b6&#45;eda4bb5d782e -->
<g id="edge9" class="edge">
<title>16186ee8&#45;c957&#45;431b&#45;91a7&#45;e75dc3294e18&#45;&gt;c5806466&#45;79da&#45;4234&#45;87b6&#45;eda4bb5d782e</title>
<path fill="none" stroke="black" stroke-dasharray="5,2" d="M508.7,-431.25C530.45,-420.25 556.33,-407.17 577.76,-396.34"/>
<polygon fill="black" stroke="black" points="579.6,-399.33 586.95,-391.69 576.45,-393.08 579.6,-399.33"/>
</g>
<!-- 2a85fdb9&#45;ea40&#45;4061&#45;9b9d&#45;1cb02e94ecbc -->
<g id="node9" class="node">
<title>2a85fdb9&#45;ea40&#45;4061&#45;9b9d&#45;1cb02e94ecbc</title>
<ellipse fill="#0ee832" stroke="black" cx="306" cy="-277.61" rx="101.65" ry="26.74"/>
<text text-anchor="middle" x="306" y="-281.41" font-family="Helvetica,sans-Serif" font-size="14.00">✓ Modify</text>
<text text-anchor="middle" x="306" y="-266.41" font-family="Helvetica,sans-Serif" font-size="14.00">tests/test_main.py</text>
</g>
<!-- e9b331f6&#45;9959&#45;4257&#45;adba&#45;e16af967d482&#45;&gt;2a85fdb9&#45;ea40&#45;4061&#45;9b9d&#45;1cb02e94ecbc -->
<g id="edge4" class="edge">
<title>e9b331f6&#45;9959&#45;4257&#45;adba&#45;e16af967d482&#45;&gt;2a85fdb9&#45;ea40&#45;4061&#45;9b9d&#45;1cb02e94ecbc</title>
<path fill="none" stroke="black" d="M306,-355.26C306,-343.96 306,-328.75 306,-314.86"/>
<polygon fill="black" stroke="black" points="309.5,-314.58 306,-304.58 302.5,-314.58 309.5,-314.58"/>
<text text-anchor="middle" x="403.5" y="-326.28" font-family="Helvetica,sans-Serif" font-size="14.00">Additional changes required</text>
</g>
<!-- 9ba2da6c&#45;3356&#45;4b3c&#45;8e86&#45;fd1dfab20c43 -->
<g id="node10" class="node">
<title>9ba2da6c&#45;3356&#45;4b3c&#45;8e86&#45;fd1dfab20c43</title>
<polygon fill="#ee0000" stroke="black" points="298,-213.74 0,-213.74 0,-177.74 298,-177.74 298,-213.74"/>
<text text-anchor="middle" x="149" y="-192.04" font-family="Helvetica,sans-Serif" font-size="14.00">✗ Ran sandbox for `tests/test_main.py`.</text>
</g>
<!-- 2a85fdb9&#45;ea40&#45;4061&#45;9b9d&#45;1cb02e94ecbc&#45;&gt;9ba2da6c&#45;3356&#45;4b3c&#45;8e86&#45;fd1dfab20c43 -->
<g id="edge5" class="edge">
<title>2a85fdb9&#45;ea40&#45;4061&#45;9b9d&#45;1cb02e94ecbc&#45;&gt;9ba2da6c&#45;3356&#45;4b3c&#45;8e86&#45;fd1dfab20c43</title>
<path fill="none" stroke="black" stroke-dasharray="5,2" d="M260.59,-253.51C238.97,-242.51 213.26,-229.43 191.97,-218.6"/>
<polygon fill="black" stroke="black" points="193.33,-215.37 182.83,-213.95 190.16,-221.61 193.33,-215.37"/>
</g>
<!-- d446e5f4&#45;8a70&#45;4b61&#45;a043&#45;55c2bcb79517 -->
<g id="node11" class="node">
<title>d446e5f4&#45;8a70&#45;4b61&#45;a043&#45;55c2bcb79517</title>
<polygon fill="white" stroke="black" points="612,-213.74 316,-213.74 316,-177.74 612,-177.74 612,-213.74"/>
<text text-anchor="middle" x="464" y="-192.04" font-family="Helvetica,sans-Serif" font-size="14.00">▶ Ran sandbox for `tests/test_main.py`.</text>
</g>
<!-- 2a85fdb9&#45;ea40&#45;4061&#45;9b9d&#45;1cb02e94ecbc&#45;&gt;d446e5f4&#45;8a70&#45;4b61&#45;a043&#45;55c2bcb79517 -->
<g id="edge8" class="edge">
<title>2a85fdb9&#45;ea40&#45;4061&#45;9b9d&#45;1cb02e94ecbc&#45;&gt;d446e5f4&#45;8a70&#45;4b61&#45;a043&#45;55c2bcb79517</title>
<path fill="none" stroke="black" stroke-dasharray="5,2" d="M351.7,-253.51C373.45,-242.51 399.33,-229.43 420.76,-218.6"/>
<polygon fill="black" stroke="black" points="422.6,-221.59 429.95,-213.95 419.45,-215.34 422.6,-221.59"/>
</g>
<!-- be3c7606&#45;11bb&#45;43e0&#45;9016&#45;4430cd6744cb -->
<g id="node12" class="node">
<title>be3c7606&#45;11bb&#45;43e0&#45;9016&#45;4430cd6744cb</title>
<ellipse fill="yellow" stroke="black" cx="149" cy="-99.87" rx="101.65" ry="26.74"/>
<text text-anchor="middle" x="149" y="-103.67" font-family="Helvetica,sans-Serif" font-size="14.00">⋯ Modify</text>
<text text-anchor="middle" x="149" y="-88.67" font-family="Helvetica,sans-Serif" font-size="14.00">tests/test_main.py</text>
</g>
<!-- 9ba2da6c&#45;3356&#45;4b3c&#45;8e86&#45;fd1dfab20c43&#45;&gt;be3c7606&#45;11bb&#45;43e0&#45;9016&#45;4430cd6744cb -->
<g id="edge6" class="edge">
<title>9ba2da6c&#45;3356&#45;4b3c&#45;8e86&#45;fd1dfab20c43&#45;&gt;be3c7606&#45;11bb&#45;43e0&#45;9016&#45;4430cd6744cb</title>
<path fill="none" stroke="black" d="M149,-177.52C149,-166.22 149,-151.01 149,-137.12"/>
<polygon fill="black" stroke="black" points="152.5,-136.84 149,-126.84 145.5,-136.84 152.5,-136.84"/>
<text text-anchor="middle" x="246.5" y="-148.54" font-family="Helvetica,sans-Serif" font-size="14.00">Additional changes required</text>
</g>
<!-- 5eb942c0&#45;6d56&#45;4d46&#45;ac35&#45;e2a1a33fe442 -->
<g id="node13" class="node">
<title>5eb942c0&#45;6d56&#45;4d46&#45;ac35&#45;e2a1a33fe442</title>
<polygon fill="white" stroke="black" points="297,-36 1,-36 1,0 297,0 297,-36"/>
<text text-anchor="middle" x="149" y="-14.3" font-family="Helvetica,sans-Serif" font-size="14.00">▶ Ran sandbox for `tests/test_main.py`.</text>
</g>
<!-- be3c7606&#45;11bb&#45;43e0&#45;9016&#45;4430cd6744cb&#45;&gt;5eb942c0&#45;6d56&#45;4d46&#45;ac35&#45;e2a1a33fe442 -->
<g id="edge7" class="edge">
<title>be3c7606&#45;11bb&#45;43e0&#45;9016&#45;4430cd6744cb&#45;&gt;5eb942c0&#45;6d56&#45;4d46&#45;ac35&#45;e2a1a33fe442</title>
<path fill="none" stroke="black" stroke-dasharray="5,2" d="M149,-72.72C149,-64.27 149,-54.89 149,-46.36"/>
<polygon fill="black" stroke="black" points="152.5,-46.15 149,-36.15 145.5,-46.15 152.5,-46.15"/>
</g>
</g>
</svg>
