<?xml version="1.0" encoding="UTF-8" standalone="no"?>
<!DOCTYPE svg PUBLIC "-//W3C//DTD SVG 1.1//EN"
 "http://www.w3.org/Graphics/SVG/1.1/DTD/svg11.dtd">
<!-- Generated by graphviz version 2.43.0 (0)
 -->
<!-- Title: %3 Pages: 1 -->
<svg width="1621pt" height="415pt"
 viewBox="0.00 0.00 1620.50 415.48" xmlns="http://www.w3.org/2000/svg" xmlns:xlink="http://www.w3.org/1999/xlink">
<g id="graph0" class="graph" transform="scale(1 1) rotate(0) translate(36 379.48)">
<title>%3</title>
<polygon fill="dimgray" stroke="transparent" points="-36,36 -36,-379.48 1584.5,-379.48 1584.5,36 -36,36"/>
<text text-anchor="middle" x="774.25" y="-328.28" font-family="Helvetica,sans-Serif" font-size="14.00">Sweep&#39;s Plan &amp; Progress</text>
<!-- start -->
<g id="node1" class="node">
<title>start</title>
</g>
<!-- c19f59b3&#45;5a0a&#45;4413&#45;bcfe&#45;7736547d92e4 -->
<g id="node3" class="node">
<title>c19f59b3&#45;5a0a&#45;4413&#45;bcfe&#45;7736547d92e4</title>
<ellipse fill="#0ee832" stroke="black" cx="368" cy="-277.61" rx="179.71" ry="26.74"/>
<text text-anchor="middle" x="368" y="-281.41" font-family="Helvetica,sans-Serif" font-size="14.00">✓ Create</text>
<text text-anchor="middle" x="368" y="-266.41" font-family="Helvetica,sans-Serif" font-size="14.00">touch_typing_practice/frontend.py</text>
</g>
<!-- start&#45;&gt;c19f59b3&#45;5a0a&#45;4413&#45;bcfe&#45;7736547d92e4 -->
<g id="edge9" class="edge">
<title>start&#45;&gt;c19f59b3&#45;5a0a&#45;4413&#45;bcfe&#45;7736547d92e4</title>
<path fill="none" stroke="black" d="M136.67,-277.61C140.05,-277.61 156.02,-277.61 178.12,-277.61"/>
<polygon fill="black" stroke="black" points="178.32,-281.11 188.32,-277.61 178.32,-274.11 178.32,-281.11"/>
<text text-anchor="middle" x="162.45" y="-284.41" font-family="Helvetica,sans-Serif" font-size="14.00">Start</text>
</g>
<!-- end -->
<g id="node2" class="node">
<title>end</title>
</g>
<!-- 6d029d13&#45;2013&#45;4c1e&#45;9059&#45;e3ba9064fb02 -->
<g id="node4" class="node">
<title>6d029d13&#45;2013&#45;4c1e&#45;9059&#45;e3ba9064fb02</title>
<ellipse fill="#0ee832" stroke="black" cx="911" cy="-277.61" rx="162.77" ry="26.74"/>
<text text-anchor="middle" x="911" y="-281.41" font-family="Helvetica,sans-Serif" font-size="14.00">✓ Modify</text>
<text text-anchor="middle" x="911" y="-266.41" font-family="Helvetica,sans-Serif" font-size="14.00">touch_typing_practice/main.py</text>
</g>
<!-- c19f59b3&#45;5a0a&#45;4413&#45;bcfe&#45;7736547d92e4&#45;&gt;6d029d13&#45;2013&#45;4c1e&#45;9059&#45;e3ba9064fb02 -->
<g id="edge2" class="edge">
<title>c19f59b3&#45;5a0a&#45;4413&#45;bcfe&#45;7736547d92e4&#45;&gt;6d029d13&#45;2013&#45;4c1e&#45;9059&#45;e3ba9064fb02</title>
<path fill="none" stroke="black" d="M547.76,-277.61C611.18,-277.61 674.59,-277.61 738,-277.61"/>
<polygon fill="black" stroke="black" points="738.18,-281.11 748.18,-277.61 738.18,-274.11 738.18,-281.11"/>
</g>
<!-- 30bc8cd6&#45;ba71&#45;4f7c&#45;9da3&#45;adb749ccf9ab -->
<g id="node6" class="node">
<title>30bc8cd6&#45;ba71&#45;4f7c&#45;9da3&#45;adb749ccf9ab</title>
<polygon fill="#0ee832" stroke="black" points="408,-213.74 0,-213.74 0,-177.74 408,-177.74 408,-213.74"/>
<text text-anchor="middle" x="204" y="-192.04" font-family="Helvetica,sans-Serif" font-size="14.00">✓ Ran sandbox for `touch_typing_practice/frontend.py`.</text>
</g>
<!-- c19f59b3&#45;5a0a&#45;4413&#45;bcfe&#45;7736547d92e4&#45;&gt;30bc8cd6&#45;ba71&#45;4f7c&#45;9da3&#45;adb749ccf9ab -->
<g id="edge1" class="edge">
<title>c19f59b3&#45;5a0a&#45;4413&#45;bcfe&#45;7736547d92e4&#45;&gt;30bc8cd6&#45;ba71&#45;4f7c&#45;9da3&#45;adb749ccf9ab</title>
<path fill="none" stroke="black" stroke-dasharray="5,2" d="M317.01,-251.78C294.98,-241.05 269.44,-228.61 248.22,-218.28"/>
<polygon fill="black" stroke="black" points="249.63,-215.07 239.11,-213.84 246.57,-221.36 249.63,-215.07"/>
</g>
<!-- 45ba3331&#45;46fc&#45;4980&#45;9d31&#45;6815cc54a420 -->
<g id="node5" class="node">
<title>45ba3331&#45;46fc&#45;4980&#45;9d31&#45;6815cc54a420</title>
<ellipse fill="white" stroke="black" cx="1309" cy="-277.61" rx="119.5" ry="26.74"/>
<text text-anchor="middle" x="1309" y="-281.41" font-family="Helvetica,sans-Serif" font-size="14.00">▶ Create</text>
<text text-anchor="middle" x="1309" y="-266.41" font-family="Helvetica,sans-Serif" font-size="14.00">tests/test_frontend.py</text>
</g>
<!-- 6d029d13&#45;2013&#45;4c1e&#45;9059&#45;e3ba9064fb02&#45;&gt;45ba3331&#45;46fc&#45;4980&#45;9d31&#45;6815cc54a420 -->
<g id="edge7" class="edge">
<title>6d029d13&#45;2013&#45;4c1e&#45;9059&#45;e3ba9064fb02&#45;&gt;45ba3331&#45;46fc&#45;4980&#45;9d31&#45;6815cc54a420</title>
<path fill="none" stroke="black" d="M1073.85,-277.61C1108.83,-277.61 1143.8,-277.61 1178.77,-277.61"/>
<polygon fill="black" stroke="black" points="1179.13,-281.11 1189.13,-277.61 1179.13,-274.11 1179.13,-281.11"/>
</g>
<!-- 4e5abde4&#45;3ed0&#45;4a66&#45;bc89&#45;ab03fb4981ee -->
<g id="node7" class="node">
<title>4e5abde4&#45;3ed0&#45;4a66&#45;bc89&#45;ab03fb4981ee</title>
<polygon fill="#ee0000" stroke="black" points="808.5,-213.74 425.5,-213.74 425.5,-177.74 808.5,-177.74 808.5,-213.74"/>
<text text-anchor="middle" x="617" y="-192.04" font-family="Helvetica,sans-Serif" font-size="14.00">✗ Ran sandbox for `touch_typing_practice/main.py`.</text>
</g>
<!-- 6d029d13&#45;2013&#45;4c1e&#45;9059&#45;e3ba9064fb02&#45;&gt;4e5abde4&#45;3ed0&#45;4a66&#45;bc89&#45;ab03fb4981ee -->
<g id="edge3" class="edge">
<title>6d029d13&#45;2013&#45;4c1e&#45;9059&#45;e3ba9064fb02&#45;&gt;4e5abde4&#45;3ed0&#45;4a66&#45;bc89&#45;ab03fb4981ee</title>
<path fill="none" stroke="black" stroke-dasharray="5,2" d="M829.1,-254.36C785.28,-242.46 731.79,-227.92 689.49,-216.43"/>
<polygon fill="black" stroke="black" points="690.38,-213.05 679.82,-213.81 688.55,-219.8 690.38,-213.05"/>
</g>
<!-- 8a366206&#45;8c2f&#45;4e40&#45;8e7e&#45;71ab1d845145 -->
<g id="node8" class="node">
<title>8a366206&#45;8c2f&#45;4e40&#45;8e7e&#45;71ab1d845145</title>
<polygon fill="white" stroke="black" points="1209,-213.74 827,-213.74 827,-177.74 1209,-177.74 1209,-213.74"/>
<text text-anchor="middle" x="1018" y="-192.04" font-family="Helvetica,sans-Serif" font-size="14.00">▶ Ran sandbox for `touch_typing_practice/main.py`.</text>
</g>
<!-- 6d029d13&#45;2013&#45;4c1e&#45;9059&#45;e3ba9064fb02&#45;&gt;8a366206&#45;8c2f&#45;4e40&#45;8e7e&#45;71ab1d845145 -->
<g id="edge6" class="edge">
<title>6d029d13&#45;2013&#45;4c1e&#45;9059&#45;e3ba9064fb02&#45;&gt;8a366206&#45;8c2f&#45;4e40&#45;8e7e&#45;71ab1d845145</title>
<path fill="none" stroke="black" stroke-dasharray="5,2" d="M945.15,-251.12C958.5,-241.16 973.7,-229.81 986.75,-220.07"/>
<polygon fill="black" stroke="black" points="989.05,-222.71 994.97,-213.93 984.87,-217.1 989.05,-222.71"/>
</g>
<!-- 45ba3331&#45;46fc&#45;4980&#45;9d31&#45;6815cc54a420&#45;&gt;end -->
<g id="edge10" class="edge">
<title>45ba3331&#45;46fc&#45;4980&#45;9d31&#45;6815cc54a420&#45;&gt;end</title>
<path fill="none" stroke="black" d="M1428.72,-277.61C1448.32,-277.61 1465.66,-277.61 1476.22,-277.61"/>
<polygon fill="black" stroke="black" points="1476.33,-281.11 1486.33,-277.61 1476.33,-274.11 1476.33,-281.11"/>
<text text-anchor="middle" x="1457.5" y="-284.41" font-family="Helvetica,sans-Serif" font-size="14.00">Finish</text>
</g>
<!-- 1f540b12&#45;9d27&#45;425c&#45;9951&#45;ce80057612e2 -->
<g id="node9" class="node">
<title>1f540b12&#45;9d27&#45;425c&#45;9951&#45;ce80057612e2</title>
<polygon fill="white" stroke="black" points="1548.5,-213.74 1227.5,-213.74 1227.5,-177.74 1548.5,-177.74 1548.5,-213.74"/>
<text text-anchor="middle" x="1388" y="-192.04" font-family="Helvetica,sans-Serif" font-size="14.00">▶ Ran sandbox for `tests/test_frontend.py`.</text>
</g>
<!-- 45ba3331&#45;46fc&#45;4980&#45;9d31&#45;6815cc54a420&#45;&gt;1f540b12&#45;9d27&#45;425c&#45;9951&#45;ce80057612e2 -->
<g id="edge8" class="edge">
<title>45ba3331&#45;46fc&#45;4980&#45;9d31&#45;6815cc54a420&#45;&gt;1f540b12&#45;9d27&#45;425c&#45;9951&#45;ce80057612e2</title>
<path fill="none" stroke="black" stroke-dasharray="5,2" d="M1334.43,-250.9C1343.83,-241.4 1354.44,-230.66 1363.74,-221.27"/>
<polygon fill="black" stroke="black" points="1366.31,-223.65 1370.85,-214.08 1361.33,-218.73 1366.31,-223.65"/>
</g>
<!-- c3a1a438&#45;4a2d&#45;479d&#45;9a20&#45;c6840c308ec8 -->
<g id="node10" class="node">
<title>c3a1a438&#45;4a2d&#45;479d&#45;9a20&#45;c6840c308ec8</title>
<ellipse fill="yellow" stroke="black" cx="617" cy="-99.87" rx="162.77" ry="26.74"/>
<text text-anchor="middle" x="617" y="-103.67" font-family="Helvetica,sans-Serif" font-size="14.00">⋯ Modify</text>
<text text-anchor="middle" x="617" y="-88.67" font-family="Helvetica,sans-Serif" font-size="14.00">touch_typing_practice/main.py</text>
</g>
<!-- 4e5abde4&#45;3ed0&#45;4a66&#45;bc89&#45;ab03fb4981ee&#45;&gt;c3a1a438&#45;4a2d&#45;479d&#45;9a20&#45;c6840c308ec8 -->
<g id="edge4" class="edge">
<title>4e5abde4&#45;3ed0&#45;4a66&#45;bc89&#45;ab03fb4981ee&#45;&gt;c3a1a438&#45;4a2d&#45;479d&#45;9a20&#45;c6840c308ec8</title>
<path fill="none" stroke="black" d="M617,-177.52C617,-166.22 617,-151.01 617,-137.12"/>
<polygon fill="black" stroke="black" points="620.5,-136.84 617,-126.84 613.5,-136.84 620.5,-136.84"/>
<text text-anchor="middle" x="714.5" y="-148.54" font-family="Helvetica,sans-Serif" font-size="14.00">Additional changes required</text>
</g>
<!-- 377f3db2&#45;d68e&#45;4ed6&#45;8f79&#45;d9fcc4b3ba03 -->
<g id="node11" class="node">
<title>377f3db2&#45;d68e&#45;4ed6&#45;8f79&#45;d9fcc4b3ba03</title>
<polygon fill="white" stroke="black" points="808,-36 426,-36 426,0 808,0 808,-36"/>
<text text-anchor="middle" x="617" y="-14.3" font-family="Helvetica,sans-Serif" font-size="14.00">▶ Ran sandbox for `touch_typing_practice/main.py`.</text>
</g>
<!-- c3a1a438&#45;4a2d&#45;479d&#45;9a20&#45;c6840c308ec8&#45;&gt;377f3db2&#45;d68e&#45;4ed6&#45;8f79&#45;d9fcc4b3ba03 -->
<g id="edge5" class="edge">
<title>c3a1a438&#45;4a2d&#45;479d&#45;9a20&#45;c6840c308ec8&#45;&gt;377f3db2&#45;d68e&#45;4ed6&#45;8f79&#45;d9fcc4b3ba03</title>
<path fill="none" stroke="black" stroke-dasharray="5,2" d="M617,-72.72C617,-64.27 617,-54.89 617,-46.36"/>
<polygon fill="black" stroke="black" points="620.5,-46.15 617,-36.15 613.5,-46.15 620.5,-46.15"/>
</g>
</g>
</svg>
