<?xml version="1.0" encoding="UTF-8" standalone="no"?>
<!DOCTYPE svg PUBLIC "-//W3C//DTD SVG 1.1//EN"
 "http://www.w3.org/Graphics/SVG/1.1/DTD/svg11.dtd">
<!-- Generated by graphviz version 2.43.0 (0)
 -->
<!-- Title: %3 Pages: 1 -->
<svg width="666pt" height="419pt"
 viewBox="0.00 0.00 665.63 419.48" xmlns="http://www.w3.org/2000/svg" xmlns:xlink="http://www.w3.org/1999/xlink">
<g id="graph0" class="graph" transform="scale(1 1) rotate(0) translate(36 383.48)">
<title>%3</title>
<polygon fill="dimgray" stroke="transparent" points="-36,36 -36,-383.48 629.63,-383.48 629.63,36 -36,36"/>
<text text-anchor="middle" x="296.82" y="-332.28" font-family="Helvetica,sans-Serif" font-size="14.00">Sweep&#39;s Plan &amp; Progress</text>
<!-- start -->
<g id="node1" class="node">
<title>start</title>
</g>
<!-- f833ff9e&#45;4fbc&#45;462b&#45;88b1&#45;c6a37c4986eb -->
<g id="node3" class="node">
<title>f833ff9e&#45;4fbc&#45;462b&#45;88b1&#45;c6a37c4986eb</title>
<ellipse fill="#0ee832" stroke="black" cx="377.63" cy="-281.61" rx="74.91" ry="26.74"/>
<text text-anchor="middle" x="377.63" y="-285.41" font-family="Helvetica,sans-Serif" font-size="14.00">✓ Create</text>
<text text-anchor="middle" x="377.63" y="-270.41" font-family="Helvetica,sans-Serif" font-size="14.00">test_main.py</text>
</g>
<!-- start&#45;&gt;f833ff9e&#45;4fbc&#45;462b&#45;88b1&#45;c6a37c4986eb -->
<g id="edge7" class="edge">
<title>start&#45;&gt;f833ff9e&#45;4fbc&#45;462b&#45;88b1&#45;c6a37c4986eb</title>
<path fill="none" stroke="black" d="M251.45,-281.61C255.26,-281.61 272.06,-281.61 292.22,-281.61"/>
<polygon fill="black" stroke="black" points="292.35,-285.11 302.35,-281.61 292.35,-278.11 292.35,-285.11"/>
<text text-anchor="middle" x="276.91" y="-288.41" font-family="Helvetica,sans-Serif" font-size="14.00">Start</text>
</g>
<!-- end -->
<g id="node2" class="node">
<title>end</title>
</g>
<!-- f833ff9e&#45;4fbc&#45;462b&#45;88b1&#45;c6a37c4986eb&#45;&gt;end -->
<g id="edge8" class="edge">
<title>f833ff9e&#45;4fbc&#45;462b&#45;88b1&#45;c6a37c4986eb&#45;&gt;end</title>
<path fill="none" stroke="black" d="M452.69,-281.61C471.27,-281.61 488.95,-281.61 499.78,-281.61"/>
<polygon fill="black" stroke="black" points="499.92,-285.11 509.92,-281.61 499.92,-278.11 499.92,-285.11"/>
<text text-anchor="middle" x="481.36" y="-288.41" font-family="Helvetica,sans-Serif" font-size="14.00">Finish</text>
</g>
<!-- a8b28945&#45;fb76&#45;4ca9&#45;bb97&#45;b4b155a0cc3b -->
<g id="node4" class="node">
<title>a8b28945&#45;fb76&#45;4ca9&#45;bb97&#45;b4b155a0cc3b</title>
<polygon fill="#ee0000" stroke="black" points="343.63,-217.74 237.63,-217.74 237.63,-179.74 343.63,-179.74 343.63,-217.74"/>
<text text-anchor="middle" x="290.63" y="-202.54" font-family="Helvetica,sans-Serif" font-size="14.00">✗ Check</text>
<text text-anchor="middle" x="290.63" y="-187.54" font-family="Helvetica,sans-Serif" font-size="14.00">test_main.py</text>
</g>
<!-- f833ff9e&#45;4fbc&#45;462b&#45;88b1&#45;c6a37c4986eb&#45;&gt;a8b28945&#45;fb76&#45;4ca9&#45;bb97&#45;b4b155a0cc3b -->
<g id="edge1" class="edge">
<title>f833ff9e&#45;4fbc&#45;462b&#45;88b1&#45;c6a37c4986eb&#45;&gt;a8b28945&#45;fb76&#45;4ca9&#45;bb97&#45;b4b155a0cc3b</title>
<path fill="none" stroke="black" stroke-dasharray="5,2" d="M351.53,-256.35C340.82,-246.39 328.42,-234.86 317.62,-224.82"/>
<polygon fill="black" stroke="black" points="319.79,-222.06 310.08,-217.81 315.02,-227.19 319.79,-222.06"/>
</g>
<!-- 1caceb95&#45;c18a&#45;45ad&#45;9a42&#45;bed4a4e143ec -->
<g id="node5" class="node">
<title>1caceb95&#45;c18a&#45;45ad&#45;9a42&#45;bed4a4e143ec</title>
<polygon fill="white" stroke="black" points="467.63,-217.74 361.63,-217.74 361.63,-179.74 467.63,-179.74 467.63,-217.74"/>
<text text-anchor="middle" x="414.63" y="-202.54" font-family="Helvetica,sans-Serif" font-size="14.00">▶ Check</text>
<text text-anchor="middle" x="414.63" y="-187.54" font-family="Helvetica,sans-Serif" font-size="14.00">test_main.py</text>
</g>
<!-- f833ff9e&#45;4fbc&#45;462b&#45;88b1&#45;c6a37c4986eb&#45;&gt;1caceb95&#45;c18a&#45;45ad&#45;9a42&#45;bed4a4e143ec -->
<g id="edge6" class="edge">
<title>f833ff9e&#45;4fbc&#45;462b&#45;88b1&#45;c6a37c4986eb&#45;&gt;1caceb95&#45;c18a&#45;45ad&#45;9a42&#45;bed4a4e143ec</title>
<path fill="none" stroke="black" stroke-dasharray="5,2" d="M389.34,-255.02C393.38,-246.19 397.93,-236.25 402.04,-227.27"/>
<polygon fill="black" stroke="black" points="405.31,-228.54 406.28,-217.99 398.94,-225.63 405.31,-228.54"/>
</g>
<!-- f552617d&#45;8e2f&#45;48b3&#45;a464&#45;94fee568e880 -->
<g id="node6" class="node">
<title>f552617d&#45;8e2f&#45;48b3&#45;a464&#45;94fee568e880</title>
<ellipse fill="#0ee832" stroke="black" cx="162.63" cy="-101.87" rx="162.77" ry="26.74"/>
<text text-anchor="middle" x="162.63" y="-105.67" font-family="Helvetica,sans-Serif" font-size="14.00">✓ Modify</text>
<text text-anchor="middle" x="162.63" y="-90.67" font-family="Helvetica,sans-Serif" font-size="14.00">touch_typing_practice/main.py</text>
</g>
<!-- a8b28945&#45;fb76&#45;4ca9&#45;bb97&#45;b4b155a0cc3b&#45;&gt;f552617d&#45;8e2f&#45;48b3&#45;a464&#45;94fee568e880 -->
<g id="edge2" class="edge">
<title>a8b28945&#45;fb76&#45;4ca9&#45;bb97&#45;b4b155a0cc3b&#45;&gt;f552617d&#45;8e2f&#45;48b3&#45;a464&#45;94fee568e880</title>
<path fill="none" stroke="black" d="M237.51,-186.61C221.36,-181.2 204.5,-173.28 191.63,-161.74 184.47,-155.32 178.88,-146.72 174.6,-138.09"/>
<polygon fill="black" stroke="black" points="177.73,-136.52 170.46,-128.81 171.34,-139.37 177.73,-136.52"/>
<text text-anchor="middle" x="289.13" y="-150.54" font-family="Helvetica,sans-Serif" font-size="14.00">Additional changes required</text>
</g>
<!-- 1dde554d&#45;5e22&#45;4698&#45;bd55&#45;ade25e254220 -->
<g id="node7" class="node">
<title>1dde554d&#45;5e22&#45;4698&#45;bd55&#45;ade25e254220</title>
<ellipse fill="#ee0000" stroke="black" cx="418.63" cy="-101.87" rx="74.91" ry="26.74"/>
<text text-anchor="middle" x="418.63" y="-105.67" font-family="Helvetica,sans-Serif" font-size="14.00">✗ Modify</text>
<text text-anchor="middle" x="418.63" y="-90.67" font-family="Helvetica,sans-Serif" font-size="14.00">test_main.py</text>
</g>
<!-- a8b28945&#45;fb76&#45;4ca9&#45;bb97&#45;b4b155a0cc3b&#45;&gt;1dde554d&#45;5e22&#45;4698&#45;bd55&#45;ade25e254220 -->
<g id="edge4" class="edge">
<title>a8b28945&#45;fb76&#45;4ca9&#45;bb97&#45;b4b155a0cc3b&#45;&gt;1dde554d&#45;5e22&#45;4698&#45;bd55&#45;ade25e254220</title>
<path fill="none" stroke="black" d="M343.81,-181.43C362,-175.1 379.55,-167.9 386.63,-161.74 394.13,-155.22 400.18,-146.51 404.92,-137.79"/>
<polygon fill="black" stroke="black" points="408.08,-139.3 409.39,-128.78 401.81,-136.18 408.08,-139.3"/>
<text text-anchor="middle" x="496.13" y="-150.54" font-family="Helvetica,sans-Serif" font-size="14.00">Additional changes required</text>
</g>
<!-- f2f4b4d9&#45;3ccf&#45;41ac&#45;afed&#45;24b6f1027ca5 -->
<g id="node8" class="node">
<title>f2f4b4d9&#45;3ccf&#45;41ac&#45;afed&#45;24b6f1027ca5</title>
<polygon fill="#0ee832" stroke="black" points="277.63,-38 47.63,-38 47.63,0 277.63,0 277.63,-38"/>
<text text-anchor="middle" x="162.63" y="-22.8" font-family="Helvetica,sans-Serif" font-size="14.00">✓ Check</text>
<text text-anchor="middle" x="162.63" y="-7.8" font-family="Helvetica,sans-Serif" font-size="14.00">touch_typing_practice/main.py</text>
</g>
<!-- f552617d&#45;8e2f&#45;48b3&#45;a464&#45;94fee568e880&#45;&gt;f2f4b4d9&#45;3ccf&#45;41ac&#45;afed&#45;24b6f1027ca5 -->
<g id="edge3" class="edge">
<title>f552617d&#45;8e2f&#45;48b3&#45;a464&#45;94fee568e880&#45;&gt;f2f4b4d9&#45;3ccf&#45;41ac&#45;afed&#45;24b6f1027ca5</title>
<path fill="none" stroke="black" stroke-dasharray="5,2" d="M162.63,-74.84C162.63,-66.3 162.63,-56.78 162.63,-48.1"/>
<polygon fill="black" stroke="black" points="166.13,-48.05 162.63,-38.05 159.13,-48.05 166.13,-48.05"/>
</g>
<!-- 543f7b7f&#45;7d81&#45;4043&#45;9e8d&#45;0295380c6c57 -->
<g id="node9" class="node">
<title>543f7b7f&#45;7d81&#45;4043&#45;9e8d&#45;0295380c6c57</title>
<polygon fill="#ee0000" stroke="black" points="471.63,-38 365.63,-38 365.63,0 471.63,0 471.63,-38"/>
<text text-anchor="middle" x="418.63" y="-22.8" font-family="Helvetica,sans-Serif" font-size="14.00">✗ Check</text>
<text text-anchor="middle" x="418.63" y="-7.8" font-family="Helvetica,sans-Serif" font-size="14.00">test_main.py</text>
</g>
<!-- 1dde554d&#45;5e22&#45;4698&#45;bd55&#45;ade25e254220&#45;&gt;543f7b7f&#45;7d81&#45;4043&#45;9e8d&#45;0295380c6c57 -->
<g id="edge5" class="edge">
<title>1dde554d&#45;5e22&#45;4698&#45;bd55&#45;ade25e254220&#45;&gt;543f7b7f&#45;7d81&#45;4043&#45;9e8d&#45;0295380c6c57</title>
<path fill="none" stroke="black" stroke-dasharray="5,2" d="M418.63,-74.84C418.63,-66.3 418.63,-56.78 418.63,-48.1"/>
<polygon fill="black" stroke="black" points="422.13,-48.05 418.63,-38.05 415.13,-48.05 422.13,-48.05"/>
</g>
</g>
</svg>
