<?xml version="1.0" encoding="UTF-8" standalone="no"?>
<!DOCTYPE svg PUBLIC "-//W3C//DTD SVG 1.1//EN"
 "http://www.w3.org/Graphics/SVG/1.1/DTD/svg11.dtd">
<!-- Generated by graphviz version 2.43.0 (0)
 -->
<!-- Title: %3 Pages: 1 -->
<svg width="790pt" height="255pt"
 viewBox="0.00 0.00 790.00 255.48" xmlns="http://www.w3.org/2000/svg" xmlns:xlink="http://www.w3.org/1999/xlink">
<g id="graph0" class="graph" transform="scale(1 1) rotate(0) translate(36 219.48)">
<title>%3</title>
<polygon fill="dimgray" stroke="transparent" points="-36,36 -36,-219.48 754,-219.48 754,36 -36,36"/>
<text text-anchor="middle" x="359" y="-168.28" font-family="Helvetica,sans-Serif" font-size="14.00">Sweep&#39;s Plan &amp; Progress</text>
<!-- start -->
<g id="node1" class="node">
<title>start</title>
</g>
<!-- ed5597c9&#45;a6d9&#45;40be&#45;b8f7&#45;e0e65983acf7 -->
<g id="node3" class="node">
<title>ed5597c9&#45;a6d9&#45;40be&#45;b8f7&#45;e0e65983acf7</title>
<ellipse fill="yellow" stroke="black" cx="215.5" cy="-117.61" rx="162.77" ry="26.74"/>
<text text-anchor="middle" x="215.5" y="-121.41" font-family="Helvetica,sans-Serif" font-size="14.00">⋯ Refactor</text>
<text text-anchor="middle" x="215.5" y="-106.41" font-family="Helvetica,sans-Serif" font-size="14.00">touch_typing_practice/main.py</text>
</g>
<!-- start&#45;&gt;ed5597c9&#45;a6d9&#45;40be&#45;b8f7&#45;e0e65983acf7 -->
<g id="edge4" class="edge">
<title>start&#45;&gt;ed5597c9&#45;a6d9&#45;40be&#45;b8f7&#45;e0e65983acf7</title>
<path fill="none" stroke="black" d="M1.12,-117.61C4.4,-117.61 20.5,-117.61 42.52,-117.61"/>
<polygon fill="black" stroke="black" points="42.67,-121.11 52.67,-117.61 42.67,-114.11 42.67,-121.11"/>
<text text-anchor="middle" x="26.93" y="-124.41" font-family="Helvetica,sans-Serif" font-size="14.00">Start</text>
</g>
<!-- end -->
<g id="node2" class="node">
<title>end</title>
</g>
<!-- ac73bf30&#45;845c&#45;4b8f&#45;800e&#45;8edd666f4c4f -->
<g id="node4" class="node">
<title>ac73bf30&#45;845c&#45;4b8f&#45;800e&#45;8edd666f4c4f</title>
<ellipse fill="white" stroke="black" cx="539.5" cy="-117.61" rx="119.5" ry="26.74"/>
<text text-anchor="middle" x="539.5" y="-121.41" font-family="Helvetica,sans-Serif" font-size="14.00">▶ Test</text>
<text text-anchor="middle" x="539.5" y="-106.41" font-family="Helvetica,sans-Serif" font-size="14.00">tests/test_frontend.py</text>
</g>
<!-- ed5597c9&#45;a6d9&#45;40be&#45;b8f7&#45;e0e65983acf7&#45;&gt;ac73bf30&#45;845c&#45;4b8f&#45;800e&#45;8edd666f4c4f -->
<g id="edge2" class="edge">
<title>ed5597c9&#45;a6d9&#45;40be&#45;b8f7&#45;e0e65983acf7&#45;&gt;ac73bf30&#45;845c&#45;4b8f&#45;800e&#45;8edd666f4c4f</title>
<path fill="none" stroke="black" d="M378.45,-117.61C388.94,-117.61 399.43,-117.61 409.91,-117.61"/>
<polygon fill="black" stroke="black" points="409.97,-121.11 419.97,-117.61 409.97,-114.11 409.97,-121.11"/>
</g>
<!-- 7c233ec7&#45;23c5&#45;4024&#45;952e&#45;fde8d7989b6e -->
<g id="node5" class="node">
<title>7c233ec7&#45;23c5&#45;4024&#45;952e&#45;fde8d7989b6e</title>
<ellipse fill="white" stroke="black" cx="204.5" cy="-26.87" rx="162.77" ry="26.74"/>
<text text-anchor="middle" x="204.5" y="-30.67" font-family="Helvetica,sans-Serif" font-size="14.00">▶ Modify</text>
<text text-anchor="middle" x="204.5" y="-15.67" font-family="Helvetica,sans-Serif" font-size="14.00">touch_typing_practice/main.py</text>
</g>
<!-- ed5597c9&#45;a6d9&#45;40be&#45;b8f7&#45;e0e65983acf7&#45;&gt;7c233ec7&#45;23c5&#45;4024&#45;952e&#45;fde8d7989b6e -->
<g id="edge1" class="edge">
<title>ed5597c9&#45;a6d9&#45;40be&#45;b8f7&#45;e0e65983acf7&#45;&gt;7c233ec7&#45;23c5&#45;4024&#45;952e&#45;fde8d7989b6e</title>
<path fill="none" stroke="black" d="M212.26,-90.47C211.23,-82.16 210.07,-72.82 208.97,-63.95"/>
<polygon fill="black" stroke="black" points="212.42,-63.32 207.72,-53.83 205.47,-64.18 212.42,-63.32"/>
</g>
<!-- ac73bf30&#45;845c&#45;4b8f&#45;800e&#45;8edd666f4c4f&#45;&gt;end -->
<g id="edge5" class="edge">
<title>ac73bf30&#45;845c&#45;4b8f&#45;800e&#45;8edd666f4c4f&#45;&gt;end</title>
<path fill="none" stroke="black" d="M659.22,-117.61C678.82,-117.61 696.16,-117.61 706.72,-117.61"/>
<polygon fill="black" stroke="black" points="706.83,-121.11 716.83,-117.61 706.83,-114.11 706.83,-121.11"/>
<text text-anchor="middle" x="688" y="-124.41" font-family="Helvetica,sans-Serif" font-size="14.00">Finish</text>
</g>
<!-- 429a2170&#45;228f&#45;485f&#45;aa77&#45;1cebe55947e2 -->
<g id="node6" class="node">
<title>429a2170&#45;228f&#45;485f&#45;aa77&#45;1cebe55947e2</title>
<polygon fill="white" stroke="black" points="706,-44.87 385,-44.87 385,-8.87 706,-8.87 706,-44.87"/>
<text text-anchor="middle" x="545.5" y="-23.17" font-family="Helvetica,sans-Serif" font-size="14.00">▶ Ran sandbox for `tests/test_frontend.py`.</text>
</g>
<!-- ac73bf30&#45;845c&#45;4b8f&#45;800e&#45;8edd666f4c4f&#45;&gt;429a2170&#45;228f&#45;485f&#45;aa77&#45;1cebe55947e2 -->
<g id="edge3" class="edge">
<title>ac73bf30&#45;845c&#45;4b8f&#45;800e&#45;8edd666f4c4f&#45;&gt;429a2170&#45;228f&#45;485f&#45;aa77&#45;1cebe55947e2</title>
<path fill="none" stroke="black" stroke-dasharray="5,2" d="M541.27,-90.47C542.02,-79.31 542.9,-66.29 543.66,-55.02"/>
<polygon fill="black" stroke="black" points="547.17,-55.09 544.35,-44.88 540.18,-54.62 547.17,-55.09"/>
</g>
</g>
</svg>
