<?xml version="1.0" encoding="UTF-8" standalone="no"?>
<!DOCTYPE svg PUBLIC "-//W3C//DTD SVG 1.1//EN"
 "http://www.w3.org/Graphics/SVG/1.1/DTD/svg11.dtd">
<!-- Generated by graphviz version 2.43.0 (0)
 -->
<!-- Title: %3 Pages: 1 -->
<svg width="387pt" height="240pt"
 viewBox="0.00 0.00 387.00 239.74" xmlns="http://www.w3.org/2000/svg" xmlns:xlink="http://www.w3.org/1999/xlink">
<g id="graph0" class="graph" transform="scale(1 1) rotate(0) translate(36 203.74)">
<title>%3</title>
<polygon fill="dimgray" stroke="transparent" points="-36,36 -36,-203.74 351,-203.74 351,36 -36,36"/>
<text text-anchor="middle" x="157.5" y="-152.54" font-family="Helvetica,sans-Serif" font-size="14.00">Sweep&#39;s Plan &amp; Progress</text>
<!-- start -->
<g id="node1" class="node">
<title>start</title>
</g>
<!-- ff6b9ffe&#45;d5d3&#45;4cc9&#45;a28f&#45;30abf8fb6cad -->
<g id="node3" class="node">
<title>ff6b9ffe&#45;d5d3&#45;4cc9&#45;a28f&#45;30abf8fb6cad</title>
<ellipse fill="#0ee832" stroke="black" cx="154.5" cy="-101.87" rx="101.65" ry="26.74"/>
<text text-anchor="middle" x="154.5" y="-105.67" font-family="Helvetica,sans-Serif" font-size="14.00">✓ Create</text>
<text text-anchor="middle" x="154.5" y="-90.67" font-family="Helvetica,sans-Serif" font-size="14.00">tests/test_main.py</text>
</g>
<!-- start&#45;&gt;ff6b9ffe&#45;d5d3&#45;4cc9&#45;a28f&#45;30abf8fb6cad -->
<g id="edge2" class="edge">
<title>start&#45;&gt;ff6b9ffe&#45;d5d3&#45;4cc9&#45;a28f&#45;30abf8fb6cad</title>
<path fill="none" stroke="black" d="M1.19,-101.87C4.69,-101.87 21.22,-101.87 42.23,-101.87"/>
<polygon fill="black" stroke="black" points="42.51,-105.37 52.51,-101.87 42.51,-98.37 42.51,-105.37"/>
<text text-anchor="middle" x="26.84" y="-108.67" font-family="Helvetica,sans-Serif" font-size="14.00">Start</text>
</g>
<!-- end -->
<g id="node2" class="node">
<title>end</title>
</g>
<!-- ff6b9ffe&#45;d5d3&#45;4cc9&#45;a28f&#45;30abf8fb6cad&#45;&gt;end -->
<g id="edge3" class="edge">
<title>ff6b9ffe&#45;d5d3&#45;4cc9&#45;a28f&#45;30abf8fb6cad&#45;&gt;end</title>
<path fill="none" stroke="black" d="M256.74,-101.87C275.83,-101.87 293.09,-101.87 303.67,-101.87"/>
<polygon fill="black" stroke="black" points="303.82,-105.37 313.82,-101.87 303.82,-98.37 303.82,-105.37"/>
<text text-anchor="middle" x="285.16" y="-108.67" font-family="Helvetica,sans-Serif" font-size="14.00">Finish</text>
</g>
<!-- 06369b95&#45;0720&#45;4391&#45;aef7&#45;c108a5ec1623 -->
<g id="node4" class="node">
<title>06369b95&#45;0720&#45;4391&#45;aef7&#45;c108a5ec1623</title>
<polygon fill="yellow" stroke="black" points="226.5,-38 82.5,-38 82.5,0 226.5,0 226.5,-38"/>
<text text-anchor="middle" x="154.5" y="-22.8" font-family="Helvetica,sans-Serif" font-size="14.00">⋯ Check</text>
<text text-anchor="middle" x="154.5" y="-7.8" font-family="Helvetica,sans-Serif" font-size="14.00">tests/test_main.py</text>
</g>
<!-- ff6b9ffe&#45;d5d3&#45;4cc9&#45;a28f&#45;30abf8fb6cad&#45;&gt;06369b95&#45;0720&#45;4391&#45;aef7&#45;c108a5ec1623 -->
<g id="edge1" class="edge">
<title>ff6b9ffe&#45;d5d3&#45;4cc9&#45;a28f&#45;30abf8fb6cad&#45;&gt;06369b95&#45;0720&#45;4391&#45;aef7&#45;c108a5ec1623</title>
<path fill="none" stroke="black" stroke-dasharray="5,2" d="M154.5,-74.84C154.5,-66.3 154.5,-56.78 154.5,-48.1"/>
<polygon fill="black" stroke="black" points="158,-48.05 154.5,-38.05 151,-48.05 158,-48.05"/>
</g>
</g>
</svg>
