<?xml version="1.0" encoding="UTF-8" standalone="no"?>
<!DOCTYPE svg PUBLIC "-//W3C//DTD SVG 1.1//EN"
 "http://www.w3.org/Graphics/SVG/1.1/DTD/svg11.dtd">
<!-- Generated by graphviz version 2.43.0 (0)
 -->
<!-- Title: %3 Pages: 1 -->
<svg width="1231pt" height="238pt"
 viewBox="0.00 0.00 1231.00 237.74" xmlns="http://www.w3.org/2000/svg" xmlns:xlink="http://www.w3.org/1999/xlink">
<g id="graph0" class="graph" transform="scale(1 1) rotate(0) translate(36 201.74)">
<title>%3</title>
<polygon fill="dimgray" stroke="transparent" points="-36,36 -36,-201.74 1195,-201.74 1195,36 -36,36"/>
<text text-anchor="middle" x="579.5" y="-150.54" font-family="Helvetica,sans-Serif" font-size="14.00">Sweep&#39;s Plan &amp; Progress</text>
<!-- start -->
<g id="node1" class="node">
<title>start</title>
</g>
<!-- c19f59b3&#45;5a0a&#45;4413&#45;bcfe&#45;7736547d92e4 -->
<g id="node3" class="node">
<title>c19f59b3&#45;5a0a&#45;4413&#45;bcfe&#45;7736547d92e4</title>
<ellipse fill="#0ee832" stroke="black" cx="232.5" cy="-99.87" rx="179.71" ry="26.74"/>
<text text-anchor="middle" x="232.5" y="-103.67" font-family="Helvetica,sans-Serif" font-size="14.00">✓ Create</text>
<text text-anchor="middle" x="232.5" y="-88.67" font-family="Helvetica,sans-Serif" font-size="14.00">touch_typing_practice/frontend.py</text>
</g>
<!-- start&#45;&gt;c19f59b3&#45;5a0a&#45;4413&#45;bcfe&#45;7736547d92e4 -->
<g id="edge6" class="edge">
<title>start&#45;&gt;c19f59b3&#45;5a0a&#45;4413&#45;bcfe&#45;7736547d92e4</title>
<path fill="none" stroke="black" d="M1.17,-99.87C4.55,-99.87 20.52,-99.87 42.62,-99.87"/>
<polygon fill="black" stroke="black" points="42.82,-103.37 52.82,-99.87 42.82,-96.37 42.82,-103.37"/>
<text text-anchor="middle" x="26.95" y="-106.67" font-family="Helvetica,sans-Serif" font-size="14.00">Start</text>
</g>
<!-- end -->
<g id="node2" class="node">
<title>end</title>
</g>
<!-- 6d029d13&#45;2013&#45;4c1e&#45;9059&#45;e3ba9064fb02 -->
<g id="node4" class="node">
<title>6d029d13&#45;2013&#45;4c1e&#45;9059&#45;e3ba9064fb02</title>
<ellipse fill="yellow" stroke="black" cx="628.5" cy="-99.87" rx="162.77" ry="26.74"/>
<text text-anchor="middle" x="628.5" y="-103.67" font-family="Helvetica,sans-Serif" font-size="14.00">⋯ Modify</text>
<text text-anchor="middle" x="628.5" y="-88.67" font-family="Helvetica,sans-Serif" font-size="14.00">touch_typing_practice/main.py</text>
</g>
<!-- c19f59b3&#45;5a0a&#45;4413&#45;bcfe&#45;7736547d92e4&#45;&gt;6d029d13&#45;2013&#45;4c1e&#45;9059&#45;e3ba9064fb02 -->
<g id="edge2" class="edge">
<title>c19f59b3&#45;5a0a&#45;4413&#45;bcfe&#45;7736547d92e4&#45;&gt;6d029d13&#45;2013&#45;4c1e&#45;9059&#45;e3ba9064fb02</title>
<path fill="none" stroke="black" d="M412.32,-99.87C426.59,-99.87 440.86,-99.87 455.13,-99.87"/>
<polygon fill="black" stroke="black" points="455.52,-103.37 465.52,-99.87 455.52,-96.37 455.52,-103.37"/>
</g>
<!-- 30bc8cd6&#45;ba71&#45;4f7c&#45;9da3&#45;adb749ccf9ab -->
<g id="node6" class="node">
<title>30bc8cd6&#45;ba71&#45;4f7c&#45;9da3&#45;adb749ccf9ab</title>
<polygon fill="#0ee832" stroke="black" points="419.5,-36 11.5,-36 11.5,0 419.5,0 419.5,-36"/>
<text text-anchor="middle" x="215.5" y="-14.3" font-family="Helvetica,sans-Serif" font-size="14.00">✓ Ran sandbox for `touch_typing_practice/frontend.py`.</text>
</g>
<!-- c19f59b3&#45;5a0a&#45;4413&#45;bcfe&#45;7736547d92e4&#45;&gt;30bc8cd6&#45;ba71&#45;4f7c&#45;9da3&#45;adb749ccf9ab -->
<g id="edge1" class="edge">
<title>c19f59b3&#45;5a0a&#45;4413&#45;bcfe&#45;7736547d92e4&#45;&gt;30bc8cd6&#45;ba71&#45;4f7c&#45;9da3&#45;adb749ccf9ab</title>
<path fill="none" stroke="black" stroke-dasharray="5,2" d="M226.93,-72.72C225.12,-64.18 223.09,-54.68 221.26,-46.08"/>
<polygon fill="black" stroke="black" points="224.65,-45.2 219.15,-36.15 217.81,-46.66 224.65,-45.2"/>
</g>
<!-- 45ba3331&#45;46fc&#45;4980&#45;9d31&#45;6815cc54a420 -->
<g id="node5" class="node">
<title>45ba3331&#45;46fc&#45;4980&#45;9d31&#45;6815cc54a420</title>
<ellipse fill="white" stroke="black" cx="972.5" cy="-99.87" rx="119.5" ry="26.74"/>
<text text-anchor="middle" x="972.5" y="-103.67" font-family="Helvetica,sans-Serif" font-size="14.00">▶ Create</text>
<text text-anchor="middle" x="972.5" y="-88.67" font-family="Helvetica,sans-Serif" font-size="14.00">tests/test_frontend.py</text>
</g>
<!-- 6d029d13&#45;2013&#45;4c1e&#45;9059&#45;e3ba9064fb02&#45;&gt;45ba3331&#45;46fc&#45;4980&#45;9d31&#45;6815cc54a420 -->
<g id="edge4" class="edge">
<title>6d029d13&#45;2013&#45;4c1e&#45;9059&#45;e3ba9064fb02&#45;&gt;45ba3331&#45;46fc&#45;4980&#45;9d31&#45;6815cc54a420</title>
<path fill="none" stroke="black" d="M791.43,-99.87C808.58,-99.87 825.72,-99.87 842.87,-99.87"/>
<polygon fill="black" stroke="black" points="842.97,-103.37 852.97,-99.87 842.97,-96.37 842.97,-103.37"/>
</g>
<!-- 4e5abde4&#45;3ed0&#45;4a66&#45;bc89&#45;ab03fb4981ee -->
<g id="node7" class="node">
<title>4e5abde4&#45;3ed0&#45;4a66&#45;bc89&#45;ab03fb4981ee</title>
<polygon fill="white" stroke="black" points="819.5,-36 437.5,-36 437.5,0 819.5,0 819.5,-36"/>
<text text-anchor="middle" x="628.5" y="-14.3" font-family="Helvetica,sans-Serif" font-size="14.00">▶ Ran sandbox for `touch_typing_practice/main.py`.</text>
</g>
<!-- 6d029d13&#45;2013&#45;4c1e&#45;9059&#45;e3ba9064fb02&#45;&gt;4e5abde4&#45;3ed0&#45;4a66&#45;bc89&#45;ab03fb4981ee -->
<g id="edge3" class="edge">
<title>6d029d13&#45;2013&#45;4c1e&#45;9059&#45;e3ba9064fb02&#45;&gt;4e5abde4&#45;3ed0&#45;4a66&#45;bc89&#45;ab03fb4981ee</title>
<path fill="none" stroke="black" stroke-dasharray="5,2" d="M628.5,-72.72C628.5,-64.27 628.5,-54.89 628.5,-46.36"/>
<polygon fill="black" stroke="black" points="632,-46.15 628.5,-36.15 625,-46.15 632,-46.15"/>
</g>
<!-- 45ba3331&#45;46fc&#45;4980&#45;9d31&#45;6815cc54a420&#45;&gt;end -->
<g id="edge7" class="edge">
<title>45ba3331&#45;46fc&#45;4980&#45;9d31&#45;6815cc54a420&#45;&gt;end</title>
<path fill="none" stroke="black" d="M1092.22,-99.87C1111.82,-99.87 1129.16,-99.87 1139.72,-99.87"/>
<polygon fill="black" stroke="black" points="1139.83,-103.37 1149.83,-99.87 1139.83,-96.37 1139.83,-103.37"/>
<text text-anchor="middle" x="1121" y="-106.67" font-family="Helvetica,sans-Serif" font-size="14.00">Finish</text>
</g>
<!-- 1f540b12&#45;9d27&#45;425c&#45;9951&#45;ce80057612e2 -->
<g id="node8" class="node">
<title>1f540b12&#45;9d27&#45;425c&#45;9951&#45;ce80057612e2</title>
<polygon fill="white" stroke="black" points="1159,-36 838,-36 838,0 1159,0 1159,-36"/>
<text text-anchor="middle" x="998.5" y="-14.3" font-family="Helvetica,sans-Serif" font-size="14.00">▶ Ran sandbox for `tests/test_frontend.py`.</text>
</g>
<!-- 45ba3331&#45;46fc&#45;4980&#45;9d31&#45;6815cc54a420&#45;&gt;1f540b12&#45;9d27&#45;425c&#45;9951&#45;ce80057612e2 -->
<g id="edge5" class="edge">
<title>45ba3331&#45;46fc&#45;4980&#45;9d31&#45;6815cc54a420&#45;&gt;1f540b12&#45;9d27&#45;425c&#45;9951&#45;ce80057612e2</title>
<path fill="none" stroke="black" stroke-dasharray="5,2" d="M981.01,-72.72C983.82,-64.08 986.95,-54.47 989.78,-45.79"/>
<polygon fill="black" stroke="black" points="993.15,-46.74 992.92,-36.15 986.49,-44.57 993.15,-46.74"/>
</g>
</g>
</svg>
