<?xml version="1.0" encoding="UTF-8" standalone="no"?>
<!DOCTYPE svg PUBLIC "-//W3C//DTD SVG 1.1//EN"
 "http://www.w3.org/Graphics/SVG/1.1/DTD/svg11.dtd">
<!-- Generated by graphviz version 2.43.0 (0)
 -->
<!-- Title: %3 Pages: 1 -->
<svg width="842pt" height="593pt"
 viewBox="0.00 0.00 842.00 593.22" xmlns="http://www.w3.org/2000/svg" xmlns:xlink="http://www.w3.org/1999/xlink">
<g id="graph0" class="graph" transform="scale(1 1) rotate(0) translate(36 557.22)">
<title>%3</title>
<polygon fill="dimgray" stroke="transparent" points="-36,36 -36,-557.22 806,-557.22 806,36 -36,36"/>
<text text-anchor="middle" x="385" y="-506.02" font-family="Helvetica,sans-Serif" font-size="14.00">Sweep&#39;s Plan &amp; Progress</text>
<!-- start -->
<g id="node1" class="node">
<title>start</title>
</g>
<!-- db2ddeeb&#45;54dd&#45;4450&#45;8e71&#45;ad0575f60f5a -->
<g id="node3" class="node">
<title>db2ddeeb&#45;54dd&#45;4450&#45;8e71&#45;ad0575f60f5a</title>
<ellipse fill="#0ee832" stroke="black" cx="537" cy="-455.35" rx="101.65" ry="26.74"/>
<text text-anchor="middle" x="537" y="-459.15" font-family="Helvetica,sans-Serif" font-size="14.00">✓ Test</text>
<text text-anchor="middle" x="537" y="-444.15" font-family="Helvetica,sans-Serif" font-size="14.00">tests/test_main.py</text>
</g>
<!-- start&#45;&gt;db2ddeeb&#45;54dd&#45;4450&#45;8e71&#45;ad0575f60f5a -->
<g id="edge8" class="edge">
<title>start&#45;&gt;db2ddeeb&#45;54dd&#45;4450&#45;8e71&#45;ad0575f60f5a</title>
<path fill="none" stroke="black" d="M383.69,-455.35C387.19,-455.35 403.72,-455.35 424.73,-455.35"/>
<polygon fill="black" stroke="black" points="425.01,-458.85 435.01,-455.35 425.01,-451.85 425.01,-458.85"/>
<text text-anchor="middle" x="409.34" y="-462.15" font-family="Helvetica,sans-Serif" font-size="14.00">Start</text>
</g>
<!-- end -->
<g id="node2" class="node">
<title>end</title>
</g>
<!-- db2ddeeb&#45;54dd&#45;4450&#45;8e71&#45;ad0575f60f5a&#45;&gt;end -->
<g id="edge9" class="edge">
<title>db2ddeeb&#45;54dd&#45;4450&#45;8e71&#45;ad0575f60f5a&#45;&gt;end</title>
<path fill="none" stroke="black" d="M639.24,-455.35C658.33,-455.35 675.59,-455.35 686.17,-455.35"/>
<polygon fill="black" stroke="black" points="686.32,-458.85 696.32,-455.35 686.32,-451.85 686.32,-458.85"/>
<text text-anchor="middle" x="667.66" y="-462.15" font-family="Helvetica,sans-Serif" font-size="14.00">Finish</text>
</g>
<!-- b07ae8cb&#45;e9b1&#45;4919&#45;9b21&#45;0f09d074978f -->
<g id="node4" class="node">
<title>b07ae8cb&#45;e9b1&#45;4919&#45;9b21&#45;0f09d074978f</title>
<polygon fill="#ee0000" stroke="black" points="456,-391.48 158,-391.48 158,-355.48 456,-355.48 456,-391.48"/>
<text text-anchor="middle" x="307" y="-369.78" font-family="Helvetica,sans-Serif" font-size="14.00">✗ Ran sandbox for `tests/test_main.py`.</text>
</g>
<!-- db2ddeeb&#45;54dd&#45;4450&#45;8e71&#45;ad0575f60f5a&#45;&gt;b07ae8cb&#45;e9b1&#45;4919&#45;9b21&#45;0f09d074978f -->
<g id="edge1" class="edge">
<title>db2ddeeb&#45;54dd&#45;4450&#45;8e71&#45;ad0575f60f5a&#45;&gt;b07ae8cb&#45;e9b1&#45;4919&#45;9b21&#45;0f09d074978f</title>
<path fill="none" stroke="black" stroke-dasharray="5,2" d="M477.17,-433.57C442.89,-421.67 400.03,-406.79 365.9,-394.93"/>
<polygon fill="black" stroke="black" points="366.66,-391.49 356.07,-391.52 364.37,-398.11 366.66,-391.49"/>
</g>
<!-- 852451b1&#45;a41a&#45;47b3&#45;acae&#45;eeb34abd0f65 -->
<g id="node5" class="node">
<title>852451b1&#45;a41a&#45;47b3&#45;acae&#45;eeb34abd0f65</title>
<polygon fill="white" stroke="black" points="770,-391.48 474,-391.48 474,-355.48 770,-355.48 770,-391.48"/>
<text text-anchor="middle" x="622" y="-369.78" font-family="Helvetica,sans-Serif" font-size="14.00">▶ Ran sandbox for `tests/test_main.py`.</text>
</g>
<!-- db2ddeeb&#45;54dd&#45;4450&#45;8e71&#45;ad0575f60f5a&#45;&gt;852451b1&#45;a41a&#45;47b3&#45;acae&#45;eeb34abd0f65 -->
<g id="edge7" class="edge">
<title>db2ddeeb&#45;54dd&#45;4450&#45;8e71&#45;ad0575f60f5a&#45;&gt;852451b1&#45;a41a&#45;47b3&#45;acae&#45;eeb34abd0f65</title>
<path fill="none" stroke="black" stroke-dasharray="5,2" d="M563.89,-429.08C574.28,-419.32 586.11,-408.2 596.38,-398.56"/>
<polygon fill="black" stroke="black" points="598.98,-400.91 603.87,-391.52 594.19,-395.81 598.98,-400.91"/>
</g>
<!-- 16186ee8&#45;c957&#45;431b&#45;91a7&#45;e75dc3294e18 -->
<g id="node6" class="node">
<title>16186ee8&#45;c957&#45;431b&#45;91a7&#45;e75dc3294e18</title>
<ellipse fill="#0ee832" stroke="black" cx="307" cy="-277.61" rx="101.65" ry="26.74"/>
<text text-anchor="middle" x="307" y="-281.41" font-family="Helvetica,sans-Serif" font-size="14.00">✓ Modify</text>
<text text-anchor="middle" x="307" y="-266.41" font-family="Helvetica,sans-Serif" font-size="14.00">tests/test_main.py</text>
</g>
<!-- b07ae8cb&#45;e9b1&#45;4919&#45;9b21&#45;0f09d074978f&#45;&gt;16186ee8&#45;c957&#45;431b&#45;91a7&#45;e75dc3294e18 -->
<g id="edge2" class="edge">
<title>b07ae8cb&#45;e9b1&#45;4919&#45;9b21&#45;0f09d074978f&#45;&gt;16186ee8&#45;c957&#45;431b&#45;91a7&#45;e75dc3294e18</title>
<path fill="none" stroke="black" d="M307,-355.26C307,-343.96 307,-328.75 307,-314.86"/>
<polygon fill="black" stroke="black" points="310.5,-314.58 307,-304.58 303.5,-314.58 310.5,-314.58"/>
<text text-anchor="middle" x="404.5" y="-326.28" font-family="Helvetica,sans-Serif" font-size="14.00">Additional changes required</text>
</g>
<!-- e9b331f6&#45;9959&#45;4257&#45;adba&#45;e16af967d482 -->
<g id="node7" class="node">
<title>e9b331f6&#45;9959&#45;4257&#45;adba&#45;e16af967d482</title>
<polygon fill="#ee0000" stroke="black" points="299,-213.74 1,-213.74 1,-177.74 299,-177.74 299,-213.74"/>
<text text-anchor="middle" x="150" y="-192.04" font-family="Helvetica,sans-Serif" font-size="14.00">✗ Ran sandbox for `tests/test_main.py`.</text>
</g>
<!-- 16186ee8&#45;c957&#45;431b&#45;91a7&#45;e75dc3294e18&#45;&gt;e9b331f6&#45;9959&#45;4257&#45;adba&#45;e16af967d482 -->
<g id="edge3" class="edge">
<title>16186ee8&#45;c957&#45;431b&#45;91a7&#45;e75dc3294e18&#45;&gt;e9b331f6&#45;9959&#45;4257&#45;adba&#45;e16af967d482</title>
<path fill="none" stroke="black" stroke-dasharray="5,2" d="M261.59,-253.51C239.97,-242.51 214.26,-229.43 192.97,-218.6"/>
<polygon fill="black" stroke="black" points="194.33,-215.37 183.83,-213.95 191.16,-221.61 194.33,-215.37"/>
</g>
<!-- c5806466&#45;79da&#45;4234&#45;87b6&#45;eda4bb5d782e -->
<g id="node8" class="node">
<title>c5806466&#45;79da&#45;4234&#45;87b6&#45;eda4bb5d782e</title>
<polygon fill="white" stroke="black" points="613,-213.74 317,-213.74 317,-177.74 613,-177.74 613,-213.74"/>
<text text-anchor="middle" x="465" y="-192.04" font-family="Helvetica,sans-Serif" font-size="14.00">▶ Ran sandbox for `tests/test_main.py`.</text>
</g>
<!-- 16186ee8&#45;c957&#45;431b&#45;91a7&#45;e75dc3294e18&#45;&gt;c5806466&#45;79da&#45;4234&#45;87b6&#45;eda4bb5d782e -->
<g id="edge6" class="edge">
<title>16186ee8&#45;c957&#45;431b&#45;91a7&#45;e75dc3294e18&#45;&gt;c5806466&#45;79da&#45;4234&#45;87b6&#45;eda4bb5d782e</title>
<path fill="none" stroke="black" stroke-dasharray="5,2" d="M352.7,-253.51C374.45,-242.51 400.33,-229.43 421.76,-218.6"/>
<polygon fill="black" stroke="black" points="423.6,-221.59 430.95,-213.95 420.45,-215.34 423.6,-221.59"/>
</g>
<!-- 2a85fdb9&#45;ea40&#45;4061&#45;9b9d&#45;1cb02e94ecbc -->
<g id="node9" class="node">
<title>2a85fdb9&#45;ea40&#45;4061&#45;9b9d&#45;1cb02e94ecbc</title>
<ellipse fill="#0ee832" stroke="black" cx="150" cy="-99.87" rx="101.65" ry="26.74"/>
<text text-anchor="middle" x="150" y="-103.67" font-family="Helvetica,sans-Serif" font-size="14.00">✓ Modify</text>
<text text-anchor="middle" x="150" y="-88.67" font-family="Helvetica,sans-Serif" font-size="14.00">tests/test_main.py</text>
</g>
<!-- e9b331f6&#45;9959&#45;4257&#45;adba&#45;e16af967d482&#45;&gt;2a85fdb9&#45;ea40&#45;4061&#45;9b9d&#45;1cb02e94ecbc -->
<g id="edge4" class="edge">
<title>e9b331f6&#45;9959&#45;4257&#45;adba&#45;e16af967d482&#45;&gt;2a85fdb9&#45;ea40&#45;4061&#45;9b9d&#45;1cb02e94ecbc</title>
<path fill="none" stroke="black" d="M150,-177.52C150,-166.22 150,-151.01 150,-137.12"/>
<polygon fill="black" stroke="black" points="153.5,-136.84 150,-126.84 146.5,-136.84 153.5,-136.84"/>
<text text-anchor="middle" x="247.5" y="-148.54" font-family="Helvetica,sans-Serif" font-size="14.00">Additional changes required</text>
</g>
<!-- 9ba2da6c&#45;3356&#45;4b3c&#45;8e86&#45;fd1dfab20c43 -->
<g id="node10" class="node">
<title>9ba2da6c&#45;3356&#45;4b3c&#45;8e86&#45;fd1dfab20c43</title>
<polygon fill="yellow" stroke="black" points="300,-36 0,-36 0,0 300,0 300,-36"/>
<text text-anchor="middle" x="150" y="-14.3" font-family="Helvetica,sans-Serif" font-size="14.00">⋯ Ran sandbox for `tests/test_main.py`.</text>
</g>
<!-- 2a85fdb9&#45;ea40&#45;4061&#45;9b9d&#45;1cb02e94ecbc&#45;&gt;9ba2da6c&#45;3356&#45;4b3c&#45;8e86&#45;fd1dfab20c43 -->
<g id="edge5" class="edge">
<title>2a85fdb9&#45;ea40&#45;4061&#45;9b9d&#45;1cb02e94ecbc&#45;&gt;9ba2da6c&#45;3356&#45;4b3c&#45;8e86&#45;fd1dfab20c43</title>
<path fill="none" stroke="black" stroke-dasharray="5,2" d="M150,-72.72C150,-64.27 150,-54.89 150,-46.36"/>
<polygon fill="black" stroke="black" points="153.5,-46.15 150,-36.15 146.5,-46.15 153.5,-46.15"/>
</g>
</g>
</svg>
