<?xml version="1.0" encoding="UTF-8" standalone="no"?>
<!DOCTYPE svg PUBLIC "-//W3C//DTD SVG 1.1//EN"
 "http://www.w3.org/Graphics/SVG/1.1/DTD/svg11.dtd">
<!-- Generated by graphviz version 2.43.0 (0)
 -->
<!-- Title: %3 Pages: 1 -->
<svg width="333pt" height="165pt"
 viewBox="0.00 0.00 333.00 164.74" xmlns="http://www.w3.org/2000/svg" xmlns:xlink="http://www.w3.org/1999/xlink">
<g id="graph0" class="graph" transform="scale(1 1) rotate(0) translate(36 128.74)">
<title>%3</title>
<polygon fill="dimgray" stroke="transparent" points="-36,36 -36,-128.74 297,-128.74 297,36 -36,36"/>
<text text-anchor="middle" x="130.5" y="-77.54" font-family="Helvetica,sans-Serif" font-size="14.00">Sweep&#39;s Plan &amp; Progress</text>
<!-- start -->
<g id="node1" class="node">
<title>start</title>
</g>
<!-- 1f206f48&#45;9687&#45;4e6c&#45;aac5&#45;ecf517b4b913 -->
<g id="node3" class="node">
<title>1f206f48&#45;9687&#45;4e6c&#45;aac5&#45;ecf517b4b913</title>
<ellipse fill="yellow" stroke="black" cx="127.5" cy="-26.87" rx="74.91" ry="26.74"/>
<text text-anchor="middle" x="127.5" y="-30.67" font-family="Helvetica,sans-Serif" font-size="14.00">⋯ Create</text>
<text text-anchor="middle" x="127.5" y="-15.67" font-family="Helvetica,sans-Serif" font-size="14.00">test_main.py</text>
</g>
<!-- start&#45;&gt;1f206f48&#45;9687&#45;4e6c&#45;aac5&#45;ecf517b4b913 -->
<g id="edge1" class="edge">
<title>start&#45;&gt;1f206f48&#45;9687&#45;4e6c&#45;aac5&#45;ecf517b4b913</title>
<path fill="none" stroke="black" d="M1.31,-26.87C5.12,-26.87 21.93,-26.87 42.09,-26.87"/>
<polygon fill="black" stroke="black" points="42.21,-30.37 52.21,-26.87 42.21,-23.37 42.21,-30.37"/>
<text text-anchor="middle" x="26.77" y="-33.67" font-family="Helvetica,sans-Serif" font-size="14.00">Start</text>
</g>
<!-- end -->
<g id="node2" class="node">
<title>end</title>
</g>
<!-- 1f206f48&#45;9687&#45;4e6c&#45;aac5&#45;ecf517b4b913&#45;&gt;end -->
<g id="edge2" class="edge">
<title>1f206f48&#45;9687&#45;4e6c&#45;aac5&#45;ecf517b4b913&#45;&gt;end</title>
<path fill="none" stroke="black" d="M202.55,-26.87C221.13,-26.87 238.81,-26.87 249.65,-26.87"/>
<polygon fill="black" stroke="black" points="249.79,-30.37 259.79,-26.87 249.79,-23.37 249.79,-30.37"/>
<text text-anchor="middle" x="231.23" y="-33.67" font-family="Helvetica,sans-Serif" font-size="14.00">Finish</text>
</g>
</g>
</svg>
