<?xml version="1.0" encoding="UTF-8" standalone="no"?>
<!DOCTYPE svg PUBLIC "-//W3C//DTD SVG 1.1//EN"
 "http://www.w3.org/Graphics/SVG/1.1/DTD/svg11.dtd">
<!-- Generated by graphviz version 2.43.0 (0)
 -->
<!-- Title: %3 Pages: 1 -->
<svg width="841pt" height="593pt"
 viewBox="0.00 0.00 841.00 593.22" xmlns="http://www.w3.org/2000/svg" xmlns:xlink="http://www.w3.org/1999/xlink">
<g id="graph0" class="graph" transform="scale(1 1) rotate(0) translate(36 557.22)">
<title>%3</title>
<polygon fill="dimgray" stroke="transparent" points="-36,36 -36,-557.22 805,-557.22 805,36 -36,36"/>
<text text-anchor="middle" x="384.5" y="-506.02" font-family="Helvetica,sans-Serif" font-size="14.00">Sweep&#39;s Plan &amp; Progress</text>
<!-- start -->
<g id="node1" class="node">
<title>start</title>
</g>
<!-- db2ddeeb&#45;54dd&#45;4450&#45;8e71&#45;ad0575f60f5a -->
<g id="node3" class="node">
<title>db2ddeeb&#45;54dd&#45;4450&#45;8e71&#45;ad0575f60f5a</title>
<ellipse fill="#0ee832" stroke="black" cx="536" cy="-455.35" rx="101.65" ry="26.74"/>
<text text-anchor="middle" x="536" y="-459.15" font-family="Helvetica,sans-Serif" font-size="14.00">✓ Test</text>
<text text-anchor="middle" x="536" y="-444.15" font-family="Helvetica,sans-Serif" font-size="14.00">tests/test_main.py</text>
</g>
<!-- start&#45;&gt;db2ddeeb&#45;54dd&#45;4450&#45;8e71&#45;ad0575f60f5a -->
<g id="edge8" class="edge">
<title>start&#45;&gt;db2ddeeb&#45;54dd&#45;4450&#45;8e71&#45;ad0575f60f5a</title>
<path fill="none" stroke="black" d="M382.69,-455.35C386.19,-455.35 402.72,-455.35 423.73,-455.35"/>
<polygon fill="black" stroke="black" points="424.01,-458.85 434.01,-455.35 424.01,-451.85 424.01,-458.85"/>
<text text-anchor="middle" x="408.34" y="-462.15" font-family="Helvetica,sans-Serif" font-size="14.00">Start</text>
</g>
<!-- end -->
<g id="node2" class="node">
<title>end</title>
</g>
<!-- db2ddeeb&#45;54dd&#45;4450&#45;8e71&#45;ad0575f60f5a&#45;&gt;end -->
<g id="edge9" class="edge">
<title>db2ddeeb&#45;54dd&#45;4450&#45;8e71&#45;ad0575f60f5a&#45;&gt;end</title>
<path fill="none" stroke="black" d="M638.24,-455.35C657.33,-455.35 674.59,-455.35 685.17,-455.35"/>
<polygon fill="black" stroke="black" points="685.32,-458.85 695.32,-455.35 685.32,-451.85 685.32,-458.85"/>
<text text-anchor="middle" x="666.66" y="-462.15" font-family="Helvetica,sans-Serif" font-size="14.00">Finish</text>
</g>
<!-- b07ae8cb&#45;e9b1&#45;4919&#45;9b21&#45;0f09d074978f -->
<g id="node4" class="node">
<title>b07ae8cb&#45;e9b1&#45;4919&#45;9b21&#45;0f09d074978f</title>
<polygon fill="#ee0000" stroke="black" points="455,-391.48 157,-391.48 157,-355.48 455,-355.48 455,-391.48"/>
<text text-anchor="middle" x="306" y="-369.78" font-family="Helvetica,sans-Serif" font-size="14.00">✗ Ran sandbox for `tests/test_main.py`.</text>
</g>
<!-- db2ddeeb&#45;54dd&#45;4450&#45;8e71&#45;ad0575f60f5a&#45;&gt;b07ae8cb&#45;e9b1&#45;4919&#45;9b21&#45;0f09d074978f -->
<g id="edge1" class="edge">
<title>db2ddeeb&#45;54dd&#45;4450&#45;8e71&#45;ad0575f60f5a&#45;&gt;b07ae8cb&#45;e9b1&#45;4919&#45;9b21&#45;0f09d074978f</title>
<path fill="none" stroke="black" stroke-dasharray="5,2" d="M476.17,-433.57C441.89,-421.67 399.03,-406.79 364.9,-394.93"/>
<polygon fill="black" stroke="black" points="365.66,-391.49 355.07,-391.52 363.37,-398.11 365.66,-391.49"/>
</g>
<!-- 852451b1&#45;a41a&#45;47b3&#45;acae&#45;eeb34abd0f65 -->
<g id="node5" class="node">
<title>852451b1&#45;a41a&#45;47b3&#45;acae&#45;eeb34abd0f65</title>
<polygon fill="white" stroke="black" points="769,-391.48 473,-391.48 473,-355.48 769,-355.48 769,-391.48"/>
<text text-anchor="middle" x="621" y="-369.78" font-family="Helvetica,sans-Serif" font-size="14.00">▶ Ran sandbox for `tests/test_main.py`.</text>
</g>
<!-- db2ddeeb&#45;54dd&#45;4450&#45;8e71&#45;ad0575f60f5a&#45;&gt;852451b1&#45;a41a&#45;47b3&#45;acae&#45;eeb34abd0f65 -->
<g id="edge7" class="edge">
<title>db2ddeeb&#45;54dd&#45;4450&#45;8e71&#45;ad0575f60f5a&#45;&gt;852451b1&#45;a41a&#45;47b3&#45;acae&#45;eeb34abd0f65</title>
<path fill="none" stroke="black" stroke-dasharray="5,2" d="M562.89,-429.08C573.28,-419.32 585.11,-408.2 595.38,-398.56"/>
<polygon fill="black" stroke="black" points="597.98,-400.91 602.87,-391.52 593.19,-395.81 597.98,-400.91"/>
</g>
<!-- 16186ee8&#45;c957&#45;431b&#45;91a7&#45;e75dc3294e18 -->
<g id="node6" class="node">
<title>16186ee8&#45;c957&#45;431b&#45;91a7&#45;e75dc3294e18</title>
<ellipse fill="#0ee832" stroke="black" cx="306" cy="-277.61" rx="101.65" ry="26.74"/>
<text text-anchor="middle" x="306" y="-281.41" font-family="Helvetica,sans-Serif" font-size="14.00">✓ Modify</text>
<text text-anchor="middle" x="306" y="-266.41" font-family="Helvetica,sans-Serif" font-size="14.00">tests/test_main.py</text>
</g>
<!-- b07ae8cb&#45;e9b1&#45;4919&#45;9b21&#45;0f09d074978f&#45;&gt;16186ee8&#45;c957&#45;431b&#45;91a7&#45;e75dc3294e18 -->
<g id="edge2" class="edge">
<title>b07ae8cb&#45;e9b1&#45;4919&#45;9b21&#45;0f09d074978f&#45;&gt;16186ee8&#45;c957&#45;431b&#45;91a7&#45;e75dc3294e18</title>
<path fill="none" stroke="black" d="M306,-355.26C306,-343.96 306,-328.75 306,-314.86"/>
<polygon fill="black" stroke="black" points="309.5,-314.58 306,-304.58 302.5,-314.58 309.5,-314.58"/>
<text text-anchor="middle" x="403.5" y="-326.28" font-family="Helvetica,sans-Serif" font-size="14.00">Additional changes required</text>
</g>
<!-- e9b331f6&#45;9959&#45;4257&#45;adba&#45;e16af967d482 -->
<g id="node7" class="node">
<title>e9b331f6&#45;9959&#45;4257&#45;adba&#45;e16af967d482</title>
<polygon fill="#ee0000" stroke="black" points="298,-213.74 0,-213.74 0,-177.74 298,-177.74 298,-213.74"/>
<text text-anchor="middle" x="149" y="-192.04" font-family="Helvetica,sans-Serif" font-size="14.00">✗ Ran sandbox for `tests/test_main.py`.</text>
</g>
<!-- 16186ee8&#45;c957&#45;431b&#45;91a7&#45;e75dc3294e18&#45;&gt;e9b331f6&#45;9959&#45;4257&#45;adba&#45;e16af967d482 -->
<g id="edge3" class="edge">
<title>16186ee8&#45;c957&#45;431b&#45;91a7&#45;e75dc3294e18&#45;&gt;e9b331f6&#45;9959&#45;4257&#45;adba&#45;e16af967d482</title>
<path fill="none" stroke="black" stroke-dasharray="5,2" d="M260.59,-253.51C238.97,-242.51 213.26,-229.43 191.97,-218.6"/>
<polygon fill="black" stroke="black" points="193.33,-215.37 182.83,-213.95 190.16,-221.61 193.33,-215.37"/>
</g>
<!-- c5806466&#45;79da&#45;4234&#45;87b6&#45;eda4bb5d782e -->
<g id="node8" class="node">
<title>c5806466&#45;79da&#45;4234&#45;87b6&#45;eda4bb5d782e</title>
<polygon fill="white" stroke="black" points="612,-213.74 316,-213.74 316,-177.74 612,-177.74 612,-213.74"/>
<text text-anchor="middle" x="464" y="-192.04" font-family="Helvetica,sans-Serif" font-size="14.00">▶ Ran sandbox for `tests/test_main.py`.</text>
</g>
<!-- 16186ee8&#45;c957&#45;431b&#45;91a7&#45;e75dc3294e18&#45;&gt;c5806466&#45;79da&#45;4234&#45;87b6&#45;eda4bb5d782e -->
<g id="edge6" class="edge">
<title>16186ee8&#45;c957&#45;431b&#45;91a7&#45;e75dc3294e18&#45;&gt;c5806466&#45;79da&#45;4234&#45;87b6&#45;eda4bb5d782e</title>
<path fill="none" stroke="black" stroke-dasharray="5,2" d="M351.7,-253.51C373.45,-242.51 399.33,-229.43 420.76,-218.6"/>
<polygon fill="black" stroke="black" points="422.6,-221.59 429.95,-213.95 419.45,-215.34 422.6,-221.59"/>
</g>
<!-- 2a85fdb9&#45;ea40&#45;4061&#45;9b9d&#45;1cb02e94ecbc -->
<g id="node9" class="node">
<title>2a85fdb9&#45;ea40&#45;4061&#45;9b9d&#45;1cb02e94ecbc</title>
<ellipse fill="yellow" stroke="black" cx="149" cy="-99.87" rx="101.65" ry="26.74"/>
<text text-anchor="middle" x="149" y="-103.67" font-family="Helvetica,sans-Serif" font-size="14.00">⋯ Modify</text>
<text text-anchor="middle" x="149" y="-88.67" font-family="Helvetica,sans-Serif" font-size="14.00">tests/test_main.py</text>
</g>
<!-- e9b331f6&#45;9959&#45;4257&#45;adba&#45;e16af967d482&#45;&gt;2a85fdb9&#45;ea40&#45;4061&#45;9b9d&#45;1cb02e94ecbc -->
<g id="edge4" class="edge">
<title>e9b331f6&#45;9959&#45;4257&#45;adba&#45;e16af967d482&#45;&gt;2a85fdb9&#45;ea40&#45;4061&#45;9b9d&#45;1cb02e94ecbc</title>
<path fill="none" stroke="black" d="M149,-177.52C149,-166.22 149,-151.01 149,-137.12"/>
<polygon fill="black" stroke="black" points="152.5,-136.84 149,-126.84 145.5,-136.84 152.5,-136.84"/>
<text text-anchor="middle" x="246.5" y="-148.54" font-family="Helvetica,sans-Serif" font-size="14.00">Additional changes required</text>
</g>
<!-- 9ba2da6c&#45;3356&#45;4b3c&#45;8e86&#45;fd1dfab20c43 -->
<g id="node10" class="node">
<title>9ba2da6c&#45;3356&#45;4b3c&#45;8e86&#45;fd1dfab20c43</title>
<polygon fill="white" stroke="black" points="297,-36 1,-36 1,0 297,0 297,-36"/>
<text text-anchor="middle" x="149" y="-14.3" font-family="Helvetica,sans-Serif" font-size="14.00">▶ Ran sandbox for `tests/test_main.py`.</text>
</g>
<!-- 2a85fdb9&#45;ea40&#45;4061&#45;9b9d&#45;1cb02e94ecbc&#45;&gt;9ba2da6c&#45;3356&#45;4b3c&#45;8e86&#45;fd1dfab20c43 -->
<g id="edge5" class="edge">
<title>2a85fdb9&#45;ea40&#45;4061&#45;9b9d&#45;1cb02e94ecbc&#45;&gt;9ba2da6c&#45;3356&#45;4b3c&#45;8e86&#45;fd1dfab20c43</title>
<path fill="none" stroke="black" stroke-dasharray="5,2" d="M149,-72.72C149,-64.27 149,-54.89 149,-46.36"/>
<polygon fill="black" stroke="black" points="152.5,-46.15 149,-36.15 145.5,-46.15 152.5,-46.15"/>
</g>
</g>
</svg>
