<?xml version="1.0" encoding="UTF-8" standalone="no"?>
<!DOCTYPE svg PUBLIC "-//W3C//DTD SVG 1.1//EN"
 "http://www.w3.org/Graphics/SVG/1.1/DTD/svg11.dtd">
<!-- Generated by graphviz version 2.43.0 (0)
 -->
<!-- Title: %3 Pages: 1 -->
<svg width="643pt" height="165pt"
 viewBox="0.00 0.00 643.00 164.74" xmlns="http://www.w3.org/2000/svg" xmlns:xlink="http://www.w3.org/1999/xlink">
<g id="graph0" class="graph" transform="scale(1 1) rotate(0) translate(36 128.74)">
<title>%3</title>
<polygon fill="dimgray" stroke="transparent" points="-36,36 -36,-128.74 607,-128.74 607,36 -36,36"/>
<text text-anchor="middle" x="285.5" y="-77.54" font-family="Helvetica,sans-Serif" font-size="14.00">Sweep&#39;s Plan &amp; Progress</text>
<!-- start -->
<g id="node1" class="node">
<title>start</title>
</g>
<!-- f5be15a4&#45;c010&#45;4e4b&#45;9c3e&#45;5de593a88c9f -->
<g id="node3" class="node">
<title>f5be15a4&#45;c010&#45;4e4b&#45;9c3e&#45;5de593a88c9f</title>
<ellipse fill="yellow" stroke="black" cx="166.5" cy="-26.87" rx="113.69" ry="26.74"/>
<text text-anchor="middle" x="166.5" y="-30.67" font-family="Helvetica,sans-Serif" font-size="14.00">⋯ Modify</text>
<text text-anchor="middle" x="166.5" y="-15.67" font-family="Helvetica,sans-Serif" font-size="14.00">tests/test_session.py</text>
</g>
<!-- start&#45;&gt;f5be15a4&#45;c010&#45;4e4b&#45;9c3e&#45;5de593a88c9f -->
<g id="edge2" class="edge">
<title>start&#45;&gt;f5be15a4&#45;c010&#45;4e4b&#45;9c3e&#45;5de593a88c9f</title>
<path fill="none" stroke="black" d="M1.24,-26.87C4.85,-26.87 21.3,-26.87 42.53,-26.87"/>
<polygon fill="black" stroke="black" points="42.59,-30.37 52.59,-26.87 42.59,-23.37 42.59,-30.37"/>
<text text-anchor="middle" x="26.83" y="-33.67" font-family="Helvetica,sans-Serif" font-size="14.00">Start</text>
</g>
<!-- end -->
<g id="node2" class="node">
<title>end</title>
</g>
<!-- 9ec235f5&#45;140d&#45;4ee7&#45;b335&#45;0a4c3cf3ebf8 -->
<g id="node4" class="node">
<title>9ec235f5&#45;140d&#45;4ee7&#45;b335&#45;0a4c3cf3ebf8</title>
<ellipse fill="white" stroke="black" cx="414.5" cy="-26.87" rx="98.08" ry="26.74"/>
<text text-anchor="middle" x="414.5" y="-30.67" font-family="Helvetica,sans-Serif" font-size="14.00">▶ Modify</text>
<text text-anchor="middle" x="414.5" y="-15.67" font-family="Helvetica,sans-Serif" font-size="14.00">tests/test_user.py</text>
</g>
<!-- f5be15a4&#45;c010&#45;4e4b&#45;9c3e&#45;5de593a88c9f&#45;&gt;9ec235f5&#45;140d&#45;4ee7&#45;b335&#45;0a4c3cf3ebf8 -->
<g id="edge1" class="edge">
<title>f5be15a4&#45;c010&#45;4e4b&#45;9c3e&#45;5de593a88c9f&#45;&gt;9ec235f5&#45;140d&#45;4ee7&#45;b335&#45;0a4c3cf3ebf8</title>
<path fill="none" stroke="black" d="M280.81,-26.87C289.17,-26.87 297.52,-26.87 305.87,-26.87"/>
<polygon fill="black" stroke="black" points="306.06,-30.37 316.06,-26.87 306.06,-23.37 306.06,-30.37"/>
</g>
<!-- 9ec235f5&#45;140d&#45;4ee7&#45;b335&#45;0a4c3cf3ebf8&#45;&gt;end -->
<g id="edge3" class="edge">
<title>9ec235f5&#45;140d&#45;4ee7&#45;b335&#45;0a4c3cf3ebf8&#45;&gt;end</title>
<path fill="none" stroke="black" d="M512.85,-26.87C531.82,-26.87 549.06,-26.87 559.65,-26.87"/>
<polygon fill="black" stroke="black" points="559.82,-30.37 569.82,-26.87 559.82,-23.37 559.82,-30.37"/>
<text text-anchor="middle" x="541.39" y="-33.67" font-family="Helvetica,sans-Serif" font-size="14.00">Finish</text>
</g>
</g>
</svg>
