<?xml version="1.0" encoding="UTF-8" standalone="no"?>
<!DOCTYPE svg PUBLIC "-//W3C//DTD SVG 1.1//EN"
 "http://www.w3.org/Graphics/SVG/1.1/DTD/svg11.dtd">
<!-- Generated by graphviz version 2.43.0 (0)
 -->
<!-- Title: %3 Pages: 1 -->
<svg width="333pt" height="240pt"
 viewBox="0.00 0.00 333.00 239.74" xmlns="http://www.w3.org/2000/svg" xmlns:xlink="http://www.w3.org/1999/xlink">
<g id="graph0" class="graph" transform="scale(1 1) rotate(0) translate(36 203.74)">
<title>%3</title>
<polygon fill="dimgray" stroke="transparent" points="-36,36 -36,-203.74 297,-203.74 297,36 -36,36"/>
<text text-anchor="middle" x="130.5" y="-152.54" font-family="Helvetica,sans-Serif" font-size="14.00">Sweep&#39;s Plan &amp; Progress</text>
<!-- start -->
<g id="node1" class="node">
<title>start</title>
</g>
<!-- f833ff9e&#45;4fbc&#45;462b&#45;88b1&#45;c6a37c4986eb -->
<g id="node3" class="node">
<title>f833ff9e&#45;4fbc&#45;462b&#45;88b1&#45;c6a37c4986eb</title>
<ellipse fill="yellow" stroke="black" cx="127.5" cy="-101.87" rx="74.91" ry="26.74"/>
<text text-anchor="middle" x="127.5" y="-105.67" font-family="Helvetica,sans-Serif" font-size="14.00">⋯ Create</text>
<text text-anchor="middle" x="127.5" y="-90.67" font-family="Helvetica,sans-Serif" font-size="14.00">test_main.py</text>
</g>
<!-- start&#45;&gt;f833ff9e&#45;4fbc&#45;462b&#45;88b1&#45;c6a37c4986eb -->
<g id="edge2" class="edge">
<title>start&#45;&gt;f833ff9e&#45;4fbc&#45;462b&#45;88b1&#45;c6a37c4986eb</title>
<path fill="none" stroke="black" d="M1.31,-101.87C5.12,-101.87 21.93,-101.87 42.09,-101.87"/>
<polygon fill="black" stroke="black" points="42.21,-105.37 52.21,-101.87 42.21,-98.37 42.21,-105.37"/>
<text text-anchor="middle" x="26.77" y="-108.67" font-family="Helvetica,sans-Serif" font-size="14.00">Start</text>
</g>
<!-- end -->
<g id="node2" class="node">
<title>end</title>
</g>
<!-- f833ff9e&#45;4fbc&#45;462b&#45;88b1&#45;c6a37c4986eb&#45;&gt;end -->
<g id="edge3" class="edge">
<title>f833ff9e&#45;4fbc&#45;462b&#45;88b1&#45;c6a37c4986eb&#45;&gt;end</title>
<path fill="none" stroke="black" d="M202.55,-101.87C221.13,-101.87 238.81,-101.87 249.65,-101.87"/>
<polygon fill="black" stroke="black" points="249.79,-105.37 259.79,-101.87 249.79,-98.37 249.79,-105.37"/>
<text text-anchor="middle" x="231.23" y="-108.67" font-family="Helvetica,sans-Serif" font-size="14.00">Finish</text>
</g>
<!-- a8b28945&#45;fb76&#45;4ca9&#45;bb97&#45;b4b155a0cc3b -->
<g id="node4" class="node">
<title>a8b28945&#45;fb76&#45;4ca9&#45;bb97&#45;b4b155a0cc3b</title>
<polygon fill="white" stroke="black" points="180.5,-38 74.5,-38 74.5,0 180.5,0 180.5,-38"/>
<text text-anchor="middle" x="127.5" y="-22.8" font-family="Helvetica,sans-Serif" font-size="14.00">▶ Check</text>
<text text-anchor="middle" x="127.5" y="-7.8" font-family="Helvetica,sans-Serif" font-size="14.00">test_main.py</text>
</g>
<!-- f833ff9e&#45;4fbc&#45;462b&#45;88b1&#45;c6a37c4986eb&#45;&gt;a8b28945&#45;fb76&#45;4ca9&#45;bb97&#45;b4b155a0cc3b -->
<g id="edge1" class="edge">
<title>f833ff9e&#45;4fbc&#45;462b&#45;88b1&#45;c6a37c4986eb&#45;&gt;a8b28945&#45;fb76&#45;4ca9&#45;bb97&#45;b4b155a0cc3b</title>
<path fill="none" stroke="black" stroke-dasharray="5,2" d="M127.5,-74.84C127.5,-66.3 127.5,-56.78 127.5,-48.1"/>
<polygon fill="black" stroke="black" points="131,-48.05 127.5,-38.05 124,-48.05 131,-48.05"/>
</g>
</g>
</svg>
