<?xml version="1.0" encoding="UTF-8" standalone="no"?>
<!DOCTYPE svg PUBLIC "-//W3C//DTD SVG 1.1//EN"
 "http://www.w3.org/Graphics/SVG/1.1/DTD/svg11.dtd">
<!-- Generated by graphviz version 2.43.0 (0)
 -->
<!-- Title: %3 Pages: 1 -->
<svg width="684pt" height="415pt"
 viewBox="0.00 0.00 684.00 415.48" xmlns="http://www.w3.org/2000/svg" xmlns:xlink="http://www.w3.org/1999/xlink">
<g id="graph0" class="graph" transform="scale(1 1) rotate(0) translate(36 379.48)">
<title>%3</title>
<polygon fill="dimgray" stroke="transparent" points="-36,36 -36,-379.48 648,-379.48 648,36 -36,36"/>
<text text-anchor="middle" x="306" y="-328.28" font-family="Helvetica,sans-Serif" font-size="14.00">Sweep&#39;s Plan &amp; Progress</text>
<!-- start -->
<g id="node1" class="node">
<title>start</title>
</g>
<!-- db2ddeeb&#45;54dd&#45;4450&#45;8e71&#45;ad0575f60f5a -->
<g id="node3" class="node">
<title>db2ddeeb&#45;54dd&#45;4450&#45;8e71&#45;ad0575f60f5a</title>
<ellipse fill="#0ee832" stroke="black" cx="379" cy="-277.61" rx="101.65" ry="26.74"/>
<text text-anchor="middle" x="379" y="-281.41" font-family="Helvetica,sans-Serif" font-size="14.00">✓ Test</text>
<text text-anchor="middle" x="379" y="-266.41" font-family="Helvetica,sans-Serif" font-size="14.00">tests/test_main.py</text>
</g>
<!-- start&#45;&gt;db2ddeeb&#45;54dd&#45;4450&#45;8e71&#45;ad0575f60f5a -->
<g id="edge5" class="edge">
<title>start&#45;&gt;db2ddeeb&#45;54dd&#45;4450&#45;8e71&#45;ad0575f60f5a</title>
<path fill="none" stroke="black" d="M225.69,-277.61C229.19,-277.61 245.72,-277.61 266.73,-277.61"/>
<polygon fill="black" stroke="black" points="267.01,-281.11 277.01,-277.61 267.01,-274.11 267.01,-281.11"/>
<text text-anchor="middle" x="251.34" y="-284.41" font-family="Helvetica,sans-Serif" font-size="14.00">Start</text>
</g>
<!-- end -->
<g id="node2" class="node">
<title>end</title>
</g>
<!-- db2ddeeb&#45;54dd&#45;4450&#45;8e71&#45;ad0575f60f5a&#45;&gt;end -->
<g id="edge6" class="edge">
<title>db2ddeeb&#45;54dd&#45;4450&#45;8e71&#45;ad0575f60f5a&#45;&gt;end</title>
<path fill="none" stroke="black" d="M481.24,-277.61C500.33,-277.61 517.59,-277.61 528.17,-277.61"/>
<polygon fill="black" stroke="black" points="528.32,-281.11 538.32,-277.61 528.32,-274.11 528.32,-281.11"/>
<text text-anchor="middle" x="509.66" y="-284.41" font-family="Helvetica,sans-Serif" font-size="14.00">Finish</text>
</g>
<!-- b07ae8cb&#45;e9b1&#45;4919&#45;9b21&#45;0f09d074978f -->
<g id="node4" class="node">
<title>b07ae8cb&#45;e9b1&#45;4919&#45;9b21&#45;0f09d074978f</title>
<polygon fill="#ee0000" stroke="black" points="298,-213.74 0,-213.74 0,-177.74 298,-177.74 298,-213.74"/>
<text text-anchor="middle" x="149" y="-192.04" font-family="Helvetica,sans-Serif" font-size="14.00">✗ Ran sandbox for `tests/test_main.py`.</text>
</g>
<!-- db2ddeeb&#45;54dd&#45;4450&#45;8e71&#45;ad0575f60f5a&#45;&gt;b07ae8cb&#45;e9b1&#45;4919&#45;9b21&#45;0f09d074978f -->
<g id="edge1" class="edge">
<title>db2ddeeb&#45;54dd&#45;4450&#45;8e71&#45;ad0575f60f5a&#45;&gt;b07ae8cb&#45;e9b1&#45;4919&#45;9b21&#45;0f09d074978f</title>
<path fill="none" stroke="black" stroke-dasharray="5,2" d="M319.17,-255.83C284.89,-243.93 242.03,-229.05 207.9,-217.19"/>
<polygon fill="black" stroke="black" points="208.66,-213.75 198.07,-213.78 206.37,-220.37 208.66,-213.75"/>
</g>
<!-- 852451b1&#45;a41a&#45;47b3&#45;acae&#45;eeb34abd0f65 -->
<g id="node5" class="node">
<title>852451b1&#45;a41a&#45;47b3&#45;acae&#45;eeb34abd0f65</title>
<polygon fill="white" stroke="black" points="612,-213.74 316,-213.74 316,-177.74 612,-177.74 612,-213.74"/>
<text text-anchor="middle" x="464" y="-192.04" font-family="Helvetica,sans-Serif" font-size="14.00">▶ Ran sandbox for `tests/test_main.py`.</text>
</g>
<!-- db2ddeeb&#45;54dd&#45;4450&#45;8e71&#45;ad0575f60f5a&#45;&gt;852451b1&#45;a41a&#45;47b3&#45;acae&#45;eeb34abd0f65 -->
<g id="edge4" class="edge">
<title>db2ddeeb&#45;54dd&#45;4450&#45;8e71&#45;ad0575f60f5a&#45;&gt;852451b1&#45;a41a&#45;47b3&#45;acae&#45;eeb34abd0f65</title>
<path fill="none" stroke="black" stroke-dasharray="5,2" d="M405.89,-251.34C416.28,-241.58 428.11,-230.46 438.38,-220.82"/>
<polygon fill="black" stroke="black" points="440.98,-223.17 445.87,-213.78 436.19,-218.07 440.98,-223.17"/>
</g>
<!-- 16186ee8&#45;c957&#45;431b&#45;91a7&#45;e75dc3294e18 -->
<g id="node6" class="node">
<title>16186ee8&#45;c957&#45;431b&#45;91a7&#45;e75dc3294e18</title>
<ellipse fill="yellow" stroke="black" cx="149" cy="-99.87" rx="101.65" ry="26.74"/>
<text text-anchor="middle" x="149" y="-103.67" font-family="Helvetica,sans-Serif" font-size="14.00">⋯ Modify</text>
<text text-anchor="middle" x="149" y="-88.67" font-family="Helvetica,sans-Serif" font-size="14.00">tests/test_main.py</text>
</g>
<!-- b07ae8cb&#45;e9b1&#45;4919&#45;9b21&#45;0f09d074978f&#45;&gt;16186ee8&#45;c957&#45;431b&#45;91a7&#45;e75dc3294e18 -->
<g id="edge2" class="edge">
<title>b07ae8cb&#45;e9b1&#45;4919&#45;9b21&#45;0f09d074978f&#45;&gt;16186ee8&#45;c957&#45;431b&#45;91a7&#45;e75dc3294e18</title>
<path fill="none" stroke="black" d="M149,-177.52C149,-166.22 149,-151.01 149,-137.12"/>
<polygon fill="black" stroke="black" points="152.5,-136.84 149,-126.84 145.5,-136.84 152.5,-136.84"/>
<text text-anchor="middle" x="246.5" y="-148.54" font-family="Helvetica,sans-Serif" font-size="14.00">Additional changes required</text>
</g>
<!-- e9b331f6&#45;9959&#45;4257&#45;adba&#45;e16af967d482 -->
<g id="node7" class="node">
<title>e9b331f6&#45;9959&#45;4257&#45;adba&#45;e16af967d482</title>
<polygon fill="white" stroke="black" points="297,-36 1,-36 1,0 297,0 297,-36"/>
<text text-anchor="middle" x="149" y="-14.3" font-family="Helvetica,sans-Serif" font-size="14.00">▶ Ran sandbox for `tests/test_main.py`.</text>
</g>
<!-- 16186ee8&#45;c957&#45;431b&#45;91a7&#45;e75dc3294e18&#45;&gt;e9b331f6&#45;9959&#45;4257&#45;adba&#45;e16af967d482 -->
<g id="edge3" class="edge">
<title>16186ee8&#45;c957&#45;431b&#45;91a7&#45;e75dc3294e18&#45;&gt;e9b331f6&#45;9959&#45;4257&#45;adba&#45;e16af967d482</title>
<path fill="none" stroke="black" stroke-dasharray="5,2" d="M149,-72.72C149,-64.27 149,-54.89 149,-46.36"/>
<polygon fill="black" stroke="black" points="152.5,-46.15 149,-36.15 145.5,-46.15 152.5,-46.15"/>
</g>
</g>
</svg>
